<svg width="24" height="24" viewBox="0 0 24 24" fill="none" xmlns="http://www.w3.org/2000/svg">
<path d="M19.4972 6.00646C18.0787 5.38803 16.5802 4.94768 15.041 4.69998C14.8303 5.05938 14.6401 5.4285 14.4702 5.80571C12.8307 5.57097 11.1641 5.57097 9.52462 5.80571C9.35473 5.4285 9.16445 5.05938 8.95378 4.69998C7.41457 4.95092 5.91442 5.39127 4.49413 6.0097C1.67393 9.9858 0.90942 13.8631 1.29168 17.6854C2.94302 18.8478 4.79144 19.7334 6.75709 20.3C7.1988 19.7334 7.59125 19.1311 7.92764 18.5014C7.28885 18.2747 6.67214 17.993 6.08432 17.6628C6.23892 17.5559 6.39012 17.4458 6.53623 17.339C9.99692 18.8899 14.003 18.8899 17.4636 17.339C17.6115 17.4539 17.7627 17.564 17.9156 17.6628C17.3277 17.9947 16.7093 18.2747 16.0688 18.503C16.4052 19.1328 16.796 19.7334 17.2394 20.3C19.2067 19.735 21.0569 18.8511 22.7082 17.6871C23.1567 13.2544 21.942 9.41269 19.4972 6.00646ZM8.41183 15.3348C7.34661 15.3348 6.46657 14.4136 6.46657 13.2803C6.46657 12.1471 7.31603 11.2178 8.40843 11.2178C9.50083 11.2178 10.3741 12.1471 10.3554 13.2803C10.3367 14.4136 9.49744 15.3348 8.41183 15.3348ZM15.588 15.3348C14.5211 15.3348 13.6445 14.4136 13.6445 13.2803C13.6445 12.1471 14.4939 11.2178 15.588 11.2178C16.6821 11.2178 17.5486 12.1471 17.5299 13.2803C17.5112 14.4136 16.6737 15.3348 15.588 15.3348Z" fill="#5865F2"/>
</svg>
