<svg width="36" height="36" viewBox="0 0 36 36" fill="none" xmlns="http://www.w3.org/2000/svg">
<path fill-rule="evenodd" clip-rule="evenodd" d="M8.25 5.25C8.25 5.66421 7.91421 6 7.5 6C7.08579 6 6.75 5.66421 6.75 5.25C6.75 4.83579 7.08579 4.5 7.5 4.5C7.91421 4.5 8.25 4.83579 8.25 5.25ZM7.5 3C8.47966 3 9.31309 3.62611 9.62197 4.5H10.5C11.7426 4.5 12.75 5.50736 12.75 6.75V9H17.25V7.37197C16.3761 7.06309 15.75 6.22966 15.75 5.25C15.75 4.00736 16.7574 3 18 3C19.2426 3 20.25 4.00736 20.25 5.25C20.25 6.22966 19.6239 7.06309 18.75 7.37197V9H23.25V6.75C23.25 5.50736 24.2574 4.5 25.5 4.5H26.378C26.6869 3.62611 27.5203 3 28.5 3C29.7426 3 30.75 4.00736 30.75 5.25C30.75 6.49264 29.7426 7.5 28.5 7.5C27.5203 7.5 26.6869 6.87389 26.378 6H25.5C25.0858 6 24.75 6.33579 24.75 6.75V9H30C31.6569 9 33 10.3431 33 12V18.75V27.75V30C33 31.6569 31.6569 33 30 33H6C4.34315 33 3 31.6569 3 30V12C3 10.3431 4.34315 9 6 9H11.25V6.75C11.25 6.33579 10.9142 6 10.5 6H9.62197C9.31309 6.87389 8.47966 7.5 7.5 7.5C6.25736 7.5 5.25 6.49264 5.25 5.25C5.25 4.00736 6.25736 3 7.5 3ZM17.25 10.5H12.75V13.5H17.25V10.5ZM18.75 13.5H23.25V10.5H18.75V13.5ZM18 6C18.4142 6 18.75 5.66421 18.75 5.25C18.75 4.83579 18.4142 4.5 18 4.5C17.5858 4.5 17.25 4.83579 17.25 5.25C17.25 5.66421 17.5858 6 18 6ZM30 13.5H24.75V10.5H30C30.8284 10.5 31.5 11.1716 31.5 12C31.5 12.8284 30.8284 13.5 30 13.5ZM28.5 6C28.0858 6 27.75 5.66421 27.75 5.25C27.75 4.83579 28.0858 4.5 28.5 4.5C28.9142 4.5 29.25 4.83579 29.25 5.25C29.25 5.66421 28.9142 6 28.5 6ZM6 10.5H11.25V13.5H6C5.17157 13.5 4.5 12.8284 4.5 12C4.5 11.1716 5.17157 10.5 6 10.5ZM31.5 14.5987V18.75H21C19.3431 18.75 18 20.0931 18 21.75V24.75C18 26.4069 19.3431 27.75 21 27.75H31.5V30C31.5 30.8284 30.8284 31.5 30 31.5H6C5.17157 31.5 4.5 30.8284 4.5 30V14.5987C4.94126 14.8539 5.45357 15 6 15H30C30.5464 15 31.0587 14.8539 31.5 14.5987ZM31.5 26.25H21C20.1716 26.25 19.5 25.5784 19.5 24.75V21.75C19.5 20.9216 20.1716 20.25 21 20.25H31.5V26.25ZM23.25 24C22.8358 24 22.5 23.6642 22.5 23.25C22.5 22.8358 22.8358 22.5 23.25 22.5C23.6642 22.5 24 22.8358 24 23.25C24 23.6642 23.6642 24 23.25 24ZM23.25 25.5C22.0074 25.5 21 24.4926 21 23.25C21 22.0074 22.0074 21 23.25 21C24.4926 21 25.5 22.0074 25.5 23.25C25.5 24.4926 24.4926 25.5 23.25 25.5Z" fill="url(#paint0_linear_5228_72565)"/>
<defs>
<linearGradient id="paint0_linear_5228_72565" x1="3" y1="30.7113" x2="33" y2="30.7113" gradientUnits="userSpaceOnUse">
<stop stop-color="#07F1AB"/>
<stop offset="1" stop-color="#A0FF88"/>
</linearGradient>
</defs>
</svg>
