<svg width="36" height="36" viewBox="0 0 36 36" fill="none" xmlns="http://www.w3.org/2000/svg">
<path fill-rule="evenodd" clip-rule="evenodd" d="M13.5001 7.50011V2.68945L2.68945 13.5001L13.5001 24.3108V18.7501L15.7501 18.7501H24.0001V15.3108L31.1894 22.5001L24.0001 29.6895V27.0001H11.8721C11.5632 26.1262 10.7298 25.5001 9.75009 25.5001C8.50745 25.5001 7.50009 26.5075 7.50009 27.7501C7.50009 28.9928 8.50745 30.0001 9.75009 30.0001C10.7298 30.0001 11.5632 29.374 11.8721 28.5001H22.5001V33.3108L33.3107 22.5001L22.5001 11.6895V17.2501L12.0001 17.2501V20.6895L4.81077 13.5001L12.0001 6.31077V9.00011H24.1281C24.437 9.87401 25.2704 10.5001 26.2501 10.5001C27.4927 10.5001 28.5001 9.49275 28.5001 8.25011C28.5001 7.00747 27.4927 6.00011 26.2501 6.00011C25.2704 6.00011 24.437 6.62622 24.1281 7.50011H13.5001ZM25.5001 8.25011C25.5001 8.66433 25.8359 9.00011 26.2501 9.00011C26.6643 9.00011 27.0001 8.66433 27.0001 8.25011C27.0001 7.8359 26.6643 7.50011 26.2501 7.50011C25.8359 7.50011 25.5001 7.8359 25.5001 8.25011ZM9.00009 27.7501C9.00009 28.1643 9.33588 28.5001 9.75009 28.5001C10.1643 28.5001 10.5001 28.1643 10.5001 27.7501C10.5001 27.3359 10.1643 27.0001 9.75009 27.0001C9.33588 27.0001 9.00009 27.3359 9.00009 27.7501Z" fill="url(#paint0_linear_5228_72575)"/>
<defs>
<linearGradient id="paint0_linear_5228_72575" x1="2.68945" y1="30.9746" x2="33.3107" y2="30.9746" gradientUnits="userSpaceOnUse">
<stop stop-color="#07F1AB"/>
<stop offset="1" stop-color="#A0FF88"/>
</linearGradient>
</defs>
</svg>
