<svg width="36" height="36" viewBox="0 0 36 36" fill="none" xmlns="http://www.w3.org/2000/svg">
<path fill-rule="evenodd" clip-rule="evenodd" d="M30.75 6C30.3358 6 30 5.66421 30 5.25C30 4.83579 30.3358 4.5 30.75 4.5C31.1642 4.5 31.5 4.83579 31.5 5.25C31.5 5.66421 31.1642 6 30.75 6ZM28.628 4.5H26.625C25.3824 4.5 24.375 5.50736 24.375 6.75V9.02014C20.3776 9.23595 17.25 11.1593 17.25 13.5V17.25V18.3576C15.9567 17.3405 13.9363 16.6449 11.625 16.5201V9H13.628C13.9369 9.87389 14.7703 10.5 15.75 10.5C16.9926 10.5 18 9.49264 18 8.25C18 7.00736 16.9926 6 15.75 6C14.7703 6 13.9369 6.62611 13.628 7.5H11.625V6.75C11.625 5.50736 10.6176 4.5 9.375 4.5H7.37197C7.06309 3.62611 6.22966 3 5.25 3C4.00736 3 3 4.00736 3 5.25C3 6.49264 4.00736 7.5 5.25 7.5C6.22966 7.5 7.06309 6.87389 7.37197 6H9.375C9.78921 6 10.125 6.33579 10.125 6.75V16.5201C6.12755 16.736 3 18.6593 3 21V24.75V28.5C3 30.9853 6.52576 33 10.875 33C14.023 33 16.7395 31.9445 18 30.4191C19.2605 31.9445 21.977 33 25.125 33C29.4742 33 33 30.9853 33 28.5V24.75V21V17.25V13.5C33 11.1593 29.8724 9.23595 25.875 9.02014V6.75C25.875 6.33579 26.2108 6 26.625 6H28.628C28.9369 6.87389 29.7703 7.5 30.75 7.5C31.9926 7.5 33 6.49264 33 5.25C33 4.00736 31.9926 3 30.75 3C29.7703 3 28.9369 3.62611 28.628 4.5ZM15 8.25C15 8.66421 15.3358 9 15.75 9C16.1642 9 16.5 8.66421 16.5 8.25C16.5 7.83579 16.1642 7.5 15.75 7.5C15.3358 7.5 15 7.83579 15 8.25ZM10.125 18.0226C8.48038 18.1222 7.0601 18.5436 6.05074 19.1204C4.84845 19.8074 4.5 20.528 4.5 21C4.5 21.472 4.84845 22.1926 6.05074 22.8796C7.2106 23.5424 8.91305 24 10.875 24C12.8369 24 14.5394 23.5424 15.6993 22.8796C16.9016 22.1926 17.25 21.472 17.25 21C17.25 20.528 16.9016 19.8074 15.6993 19.1204C14.6899 18.5436 13.2696 18.1222 11.625 18.0226V21H10.125V18.0226ZM24.375 10.5226V13.5H25.875V10.5226C27.5196 10.6222 28.9399 11.0436 29.9493 11.6204C31.1516 12.3074 31.5 13.028 31.5 13.5C31.5 13.972 31.1516 14.6926 29.9493 15.3796C28.7894 16.0424 27.0869 16.5 25.125 16.5C23.1631 16.5 21.4606 16.0424 20.3007 15.3796C19.0984 14.6926 18.75 13.972 18.75 13.5C18.75 13.028 19.0984 12.3074 20.3007 11.6204C21.3101 11.0436 22.7304 10.6222 24.375 10.5226ZM18.75 19.8924V21C18.75 21.472 19.0984 22.1926 20.3007 22.8796C21.4606 23.5424 23.1631 24 25.125 24C27.0869 24 28.7894 23.5424 29.9493 22.8796C31.1516 22.1926 31.5 21.472 31.5 21V19.8924C30.0686 21.0181 27.7464 21.75 25.125 21.75C22.5036 21.75 20.1814 21.0181 18.75 19.8924ZM31.5 17.25V16.1424C30.0686 17.2681 27.7464 18 25.125 18C22.5036 18 20.1814 17.2681 18.75 16.1424V17.25C18.75 17.722 19.0984 18.4426 20.3007 19.1296C21.4606 19.7924 23.1631 20.25 25.125 20.25C27.0869 20.25 28.7894 19.7924 29.9493 19.1296C31.1516 18.4426 31.5 17.722 31.5 17.25ZM25.125 25.5C22.5036 25.5 20.1814 24.7681 18.75 23.6424V24.75C18.75 25.222 19.0984 25.9426 20.3007 26.6296C21.4606 27.2924 23.1631 27.75 25.125 27.75C27.0869 27.75 28.7894 27.2924 29.9493 26.6296C31.1516 25.9426 31.5 25.222 31.5 24.75V23.6424C30.0686 24.7681 27.7464 25.5 25.125 25.5ZM18.75 27.3924C20.1814 28.5181 22.5036 29.25 25.125 29.25C27.7464 29.25 30.0686 28.5181 31.5 27.3924V28.5C31.5 28.972 31.1516 29.6926 29.9493 30.3796C28.7894 31.0424 27.0869 31.5 25.125 31.5C23.1631 31.5 21.4606 31.0424 20.3007 30.3796C19.0984 29.6926 18.75 28.972 18.75 28.5V27.3924ZM17.25 24.75V23.6424C15.8186 24.7681 13.4964 25.5 10.875 25.5C8.25363 25.5 5.93141 24.7681 4.5 23.6424V24.75C4.5 25.222 4.84845 25.9426 6.05074 26.6296C7.2106 27.2924 8.91305 27.75 10.875 27.75C12.8369 27.75 14.5394 27.2924 15.6993 26.6296C16.9016 25.9426 17.25 25.222 17.25 24.75ZM4.5 28.5V27.3924C5.93141 28.5181 8.25363 29.25 10.875 29.25C13.4964 29.25 15.8186 28.5181 17.25 27.3924V28.5C17.25 28.972 16.9016 29.6926 15.6993 30.3796C14.5394 31.0424 12.8369 31.5 10.875 31.5C8.91305 31.5 7.2106 31.0424 6.05074 30.3796C4.84845 29.6926 4.5 28.972 4.5 28.5ZM5.25 6C5.66421 6 6 5.66421 6 5.25C6 4.83579 5.66421 4.5 5.25 4.5C4.83579 4.5 4.5 4.83579 4.5 5.25C4.5 5.66421 4.83579 6 5.25 6Z" fill="url(#paint0_linear_5228_72585)"/>
<defs>
<linearGradient id="paint0_linear_5228_72585" x1="3" y1="30.7113" x2="33" y2="30.7113" gradientUnits="userSpaceOnUse">
<stop stop-color="#07F1AB"/>
<stop offset="1" stop-color="#A0FF88"/>
</linearGradient>
</defs>
</svg>
