<svg width="36" height="36" viewBox="0 0 36 36" fill="none" xmlns="http://www.w3.org/2000/svg">
<path fill-rule="evenodd" clip-rule="evenodd" d="M9 5C10.388 5 11.6659 6.02115 12.6824 7.73563C13.0878 7.99599 13.4819 8.25329 13.8703 8.50694C17.3256 10.7632 20.3395 12.7313 27 14L29 14C31.2091 14 33 15.7909 33 18C33 20.2091 31.2091 22 29 22L27 22V29C27 30.1046 26.1046 31 25 31C23.8954 31 23 30.1046 23 29V22.9613C18.9564 24.1719 16.5456 25.7461 13.8703 27.4931C13.4819 27.7467 13.0878 28.004 12.6824 28.2644C11.6659 29.9788 10.388 31 9 31C5.68629 31 3 25.1797 3 18C3 10.8203 5.68629 5 9 5ZM11.8807 26.5638C11.7439 26.8601 11.6055 27.1294 11.4667 27.3737L11.3922 27.4994C11.1139 27.9687 10.8387 28.3375 10.5739 28.6235C9.97674 29.2641 9.4191 29.5 9 29.5C8.2809 29.5 7.15392 28.8055 6.1193 26.5638C5.14349 24.4495 4.5 21.4233 4.5 18C4.5 14.5767 5.14349 11.5505 6.1193 9.4362C7.15392 7.19452 8.2809 6.5 9 6.5C9.41951 6.5 9.97785 6.73637 10.5757 7.3784C10.84 7.66414 11.1145 8.03232 11.3922 8.50064L11.4667 8.62634C11.6055 8.87057 11.7439 9.13987 11.8807 9.4362C12.6616 11.1281 13.2296 13.404 13.4254 16H10C8.89543 16 8 16.8954 8 18C8 19.1046 8.89543 20 10 20H13.4254C13.2296 22.596 12.6616 24.8719 11.8807 26.5638ZM15 18C15 17.3199 14.9759 16.6519 14.9294 16C14.778 13.8752 14.3891 11.9202 13.8233 10.2664C16.8536 12.2295 19.8684 14.0021 25.5 15.2253V20.7747C19.8684 21.9979 16.8536 23.7705 13.8233 25.7336C14.3891 24.0798 14.778 22.1248 14.9294 20C14.9759 19.3481 15 18.6801 15 18ZM27 20.5L29 20.5C30.3807 20.5 31.5 19.3807 31.5 18C31.5 16.6193 30.3807 15.5 29 15.5L27 15.5V20.5ZM10 17.5H13.4954C13.4985 17.6658 13.5 17.8325 13.5 18C13.5 18.1675 13.4985 18.3342 13.4954 18.5H10C9.72386 18.5 9.5 18.2761 9.5 18C9.5 17.7239 9.72386 17.5 10 17.5ZM24.5 29V22.549C24.8233 22.4675 25.1564 22.3881 25.5 22.3108V29C25.5 29.2761 25.2761 29.5 25 29.5C24.7239 29.5 24.5 29.2761 24.5 29Z" fill="url(#paint0_linear_730_106928)"/>
<defs>
<linearGradient id="paint0_linear_730_106928" x1="3" y1="29.0164" x2="33" y2="29.0164" gradientUnits="userSpaceOnUse">
<stop stop-color="#07F1AB"/>
<stop offset="1" stop-color="#A0FF88"/>
</linearGradient>
</defs>
</svg>
