<svg width="36" height="36" viewBox="0 0 36 36" fill="none" xmlns="http://www.w3.org/2000/svg">
<path fill-rule="evenodd" clip-rule="evenodd" d="M30.75 4.5C30.3358 4.5 30 4.83579 30 5.25C30 5.66421 30.3358 6 30.75 6C31.1642 6 31.5 5.66421 31.5 5.25C31.5 4.83579 31.1642 4.5 30.75 4.5ZM30.75 3C29.5074 3 28.5 4.00736 28.5 5.25C28.5 5.59736 28.5787 5.92633 28.7193 6.22006L24.5359 10.4034C24.1714 10.1491 23.7281 10 23.25 10C22.3746 10 21.616 10.4999 21.244 11.2298L14.9509 10.7803C14.7349 9.76311 13.8316 9 12.75 9C11.5074 9 10.5 10.0074 10.5 11.25C10.5 11.5974 10.5787 11.9263 10.7193 12.2201L6.22006 16.7193C5.92633 16.5787 5.59736 16.5 5.25 16.5C4.00736 16.5 3 17.5074 3 18.75C3 19.9926 4.00736 21 5.25 21C6.49264 21 7.5 19.9926 7.5 18.75C7.5 18.4026 7.42128 18.0737 7.28072 17.7799L11.7799 13.2807C12.0737 13.4213 12.4026 13.5 12.75 13.5C13.6254 13.5 14.384 13.0001 14.756 12.2702L21.0491 12.7197C21.2651 13.7369 22.1684 14.5 23.25 14.5C24.4926 14.5 25.5 13.4926 25.5 12.25C25.5 12.0398 25.4712 11.8364 25.4173 11.6434L29.7799 7.28072C30.0737 7.42129 30.4026 7.5 30.75 7.5C31.9926 7.5 33 6.49264 33 5.25C33 4.00736 31.9926 3 30.75 3ZM23.9271 11.9271L23.5729 11.5729C23.4751 11.5261 23.3656 11.5 23.25 11.5C22.8358 11.5 22.5 11.8358 22.5 12.25C22.5 12.6642 22.8358 13 23.25 13C23.6642 13 24 12.6642 24 12.25C24 12.1344 23.9739 12.0249 23.9271 11.9271ZM4.5 26.75C4.5 26.3884 4.71985 25.9693 5.26437 25.6063C5.80366 25.2467 6.59188 25 7.5 25C8.40812 25 9.19634 25.2467 9.73563 25.6063C10.2802 25.9693 10.5 26.3884 10.5 26.75C10.5 27.1116 10.2802 27.5307 9.73563 27.8937C9.19634 28.2533 8.40812 28.5 7.5 28.5C6.59188 28.5 5.80366 28.2533 5.26437 27.8937C4.71985 27.5307 4.5 27.1116 4.5 26.75ZM7.5 30C8.63116 30 9.69026 29.704 10.5 29.186V30.75C10.5 31.1116 10.2802 31.5307 9.73563 31.8937C9.19634 32.2533 8.40812 32.5 7.5 32.5C6.59188 32.5 5.80366 32.2533 5.26437 31.8937C4.71985 31.5307 4.5 31.1116 4.5 30.75V29.186C5.30974 29.704 6.36884 30 7.5 30ZM3 30.75V26.75C3 25.7309 3.61962 24.9 4.43232 24.3582C5.25027 23.8129 6.33705 23.5 7.5 23.5C8.66295 23.5 9.74973 23.8129 10.5677 24.3582C11.3804 24.9 12 25.7309 12 26.75V30.75C12 31.7691 11.3804 32.6 10.5677 33.1418C9.74973 33.6871 8.66295 34 7.5 34C6.33705 34 5.25027 33.6871 4.43232 33.1418C3.61962 32.6 3 31.7691 3 30.75ZM25.5 30.75V29.186C26.3097 29.704 27.3688 30 28.5 30C29.6312 30 30.6903 29.704 31.5 29.186V30.75C31.5 31.1116 31.2802 31.5307 30.7356 31.8937C30.1963 32.2533 29.4081 32.5 28.5 32.5C27.5919 32.5 26.8037 32.2533 26.2644 31.8937C25.7198 31.5307 25.5 31.1116 25.5 30.75ZM26.2644 27.8937C25.7198 27.5307 25.5 27.1116 25.5 26.75V25.186C26.3097 25.704 27.3688 26 28.5 26C29.6312 26 30.6903 25.704 31.5 25.186V26.75C31.5 27.1116 31.2802 27.5307 30.7356 27.8937C30.1963 28.2533 29.4081 28.5 28.5 28.5C27.5919 28.5 26.8037 28.2533 26.2644 27.8937ZM31.5 22.75C31.5 23.1116 31.2802 23.5307 30.7356 23.8937C30.1963 24.2533 29.4081 24.5 28.5 24.5C27.5919 24.5 26.8037 24.2533 26.2644 23.8937C25.7198 23.5307 25.5 23.1116 25.5 22.75V20.936C26.3097 21.454 27.3688 21.75 28.5 21.75C29.6312 21.75 30.6903 21.454 31.5 20.936V22.75ZM26.2644 19.6437C25.7198 19.2807 25.5 18.8616 25.5 18.5C25.5 18.1384 25.7198 17.7193 26.2644 17.3563C26.8037 16.9967 27.5919 16.75 28.5 16.75C29.4081 16.75 30.1963 16.9967 30.7356 17.3563C31.2802 17.7193 31.5 18.1384 31.5 18.5C31.5 18.8616 31.2802 19.2807 30.7356 19.6437C30.1963 20.0033 29.4081 20.25 28.5 20.25C27.5919 20.25 26.8037 20.0033 26.2644 19.6437ZM31.5677 16.1082C32.3804 16.65 33 17.4809 33 18.5V22.75V26.75V30.75C33 31.7691 32.3804 32.6 31.5677 33.1418C30.7497 33.6871 29.663 34 28.5 34C27.337 34 26.2503 33.6871 25.4323 33.1418C24.6196 32.6 24 31.7691 24 30.75V26.75V22.75V18.5C24 17.4809 24.6196 16.65 25.4323 16.1082C26.2503 15.5629 27.337 15.25 28.5 15.25C29.663 15.25 30.7497 15.5629 31.5677 16.1082ZM15 30.75V29.186C15.8097 29.704 16.8688 30 18 30C19.1312 30 20.1903 29.704 21 29.186V30.75C21 31.1116 20.7802 31.5307 20.2356 31.8937C19.6963 32.2533 18.9081 32.5 18 32.5C17.0919 32.5 16.3037 32.2533 15.7644 31.8937C15.2198 31.5307 15 31.1116 15 30.75ZM15 22.75C15 23.1116 15.2198 23.5307 15.7644 23.8937C16.3037 24.2533 17.0919 24.5 18 24.5C18.9081 24.5 19.6963 24.2533 20.2356 23.8937C20.7802 23.5307 21 23.1116 21 22.75C21 22.3884 20.7802 21.9693 20.2356 21.6063C19.6963 21.2467 18.9081 21 18 21C17.0919 21 16.3037 21.2467 15.7644 21.6063C15.2198 21.9693 15 22.3884 15 22.75ZM22.5 22.75V26.75V30.75C22.5 31.7691 21.8804 32.6 21.0677 33.1418C20.2497 33.6871 19.163 34 18 34C16.837 34 15.7503 33.6871 14.9323 33.1418C14.1196 32.6 13.5 31.7691 13.5 30.75V26.75V22.75C13.5 21.7309 14.1196 20.9 14.9323 20.3582C15.7503 19.8129 16.837 19.5 18 19.5C19.163 19.5 20.2497 19.8129 21.0677 20.3582C21.8804 20.9 22.5 21.7309 22.5 22.75ZM15 26.75V25.186C15.8097 25.704 16.8688 26 18 26C19.1312 26 20.1903 25.704 21 25.186V26.75C21 27.1116 20.7802 27.5307 20.2356 27.8937C19.6963 28.2533 18.9081 28.5 18 28.5C17.0919 28.5 16.3037 28.2533 15.7644 27.8937C15.2198 27.5307 15 27.1116 15 26.75ZM4.5 18.75C4.5 18.3358 4.83579 18 5.25 18C5.66421 18 6 18.3358 6 18.75C6 19.1642 5.66421 19.5 5.25 19.5C4.83579 19.5 4.5 19.1642 4.5 18.75ZM12.75 10.5C12.3358 10.5 12 10.8358 12 11.25C12 11.6642 12.3358 12 12.75 12C13.1642 12 13.5 11.6642 13.5 11.25C13.5 10.8358 13.1642 10.5 12.75 10.5Z" fill="url(#paint0_linear_1133_85417)"/>
<defs>
<linearGradient id="paint0_linear_1133_85417" x1="3" y1="31.635" x2="33" y2="31.635" gradientUnits="userSpaceOnUse">
<stop stop-color="#07F1AB"/>
<stop offset="1" stop-color="#A0FF88"/>
</linearGradient>
</defs>
</svg>
