<svg width="24" height="24" viewBox="0 0 24 24" fill="none" xmlns="http://www.w3.org/2000/svg">
<path d="M12 0C18.623 0 24 5.37703 24 12C24 18.623 18.623 24 12 24C5.37703 24 0 18.623 0 12C0 5.37703 5.37703 0 12 0Z" fill="black"/>
<path d="M17.3884 17.1252L13.1717 10.9992L12.6948 10.3064L9.67838 5.9241L9.42852 5.56107H5.72192L6.62599 6.87485L10.6365 12.7022L11.1134 13.3944L14.3361 18.0766L14.5859 18.4393H18.2925L17.3884 17.1255V17.1252ZM15.0265 17.6004L11.6786 12.7361L11.2017 12.0437L7.3168 6.39931H8.9879L12.1296 10.964L12.6065 11.6564L16.6976 17.6004H15.0265Z" fill="white"/>
<path d="M11.2018 12.0437L11.6786 12.7361L11.1134 13.394L6.77715 18.4389H5.70752L10.6365 12.7019L11.2018 12.0437Z" fill="white"/>
<path d="M17.8462 5.56107L13.1717 10.9992L12.6065 11.6568L12.1296 10.9643L12.6948 10.3064L15.8614 6.62096L16.7769 5.56107H17.8462Z" fill="white"/>
</svg>
