<svg width="24" height="24" viewBox="0 0 24 24" fill="none" xmlns="http://www.w3.org/2000/svg">
<g clip-path="url(#clip0_1366_127620)">
<path d="M10.92 17.1975C11.2575 17.1975 11.5612 17.4675 11.5612 17.8387C11.5612 18.1762 11.2912 18.48 10.92 18.48C10.5825 18.48 10.2787 18.21 10.2787 17.8387C10.2787 17.4675 10.5825 17.1975 10.92 17.1975ZM20.8425 13.2825C20.505 13.2825 20.2012 13.0125 20.2012 12.6412C20.2012 12.3037 20.4712 12 20.8425 12C21.18 12 21.4837 12.27 21.4837 12.6412C21.4837 12.9787 21.18 13.2825 20.8425 13.2825ZM20.8425 10.6837C19.7625 10.6837 18.885 11.5612 18.885 12.6412C18.885 12.8437 18.9187 13.0462 18.9862 13.2487L12.54 16.6912C12.1687 16.1512 11.5612 15.8475 10.92 15.8475C10.1775 15.8475 9.5025 16.2862 9.165 16.9275L3.36 13.89C2.7525 13.5525 2.28 12.5737 2.3475 11.6287C2.38125 11.1562 2.55 10.785 2.78625 10.65C2.955 10.5487 3.12375 10.5825 3.36 10.6837L3.39375 10.7175C4.94625 11.5275 9.975 14.16 10.1775 14.2612C10.515 14.3962 10.6837 14.4637 11.2575 14.1937L21.6525 8.79374C21.8212 8.72624 21.99 8.59124 21.99 8.35499C21.99 8.05124 21.6862 7.91624 21.6862 7.91624C21.0787 7.64624 20.1675 7.20749 19.29 6.80249C17.4 5.92499 15.24 4.91249 14.295 4.40624C13.485 3.96749 12.81 4.33874 12.7087 4.40624L12.4725 4.50749C8.18625 6.66749 2.51625 9.46874 2.17875 9.67124C1.605 10.0087 1.23375 10.7175 1.2 11.595C1.1325 12.9787 1.84125 14.43 2.85375 14.9362L8.99625 18.1087C9.13125 19.0537 9.975 19.7962 10.92 19.7962C12 19.7962 12.8437 18.9525 12.8775 17.8725L19.6275 14.2275C19.965 14.4975 20.4037 14.6325 20.8425 14.6325C21.9225 14.6325 22.8 13.755 22.8 12.675C22.8 11.5612 21.9225 10.6837 20.8425 10.6837" fill="white"/>
</g>
<defs>
<clipPath id="clip0_1366_127620">
<rect width="21.6" height="21.6" fill="white" transform="translate(1.19995 1.2)"/>
</clipPath>
</defs>
</svg>
