<svg width="24" height="24" viewBox="0 0 24 24" fill="none" xmlns="http://www.w3.org/2000/svg">
<mask id="path-1-inside-1_1080_13650" fill="white">
<path fill-rule="evenodd" clip-rule="evenodd" d="M20 7V17C20 19.2091 16.4183 21 12 21C7.58172 21 4 19.2091 4 17V7C4 4.79086 7.58172 3 12 3C16.4183 3 20 4.79086 20 7Z"/>
</mask>
<path d="M18.5 7V17H21.5V7H18.5ZM12 22.5C14.3915 22.5 16.6308 22.0185 18.3277 21.1701C19.9348 20.3665 21.5 18.9788 21.5 17H18.5C18.5 17.2303 18.2743 17.8427 16.986 18.4868C15.7875 19.0861 14.0268 19.5 12 19.5V22.5ZM2.5 17C2.5 18.9788 4.06515 20.3665 5.67233 21.1701C7.36922 22.0185 9.60849 22.5 12 22.5V19.5C9.97324 19.5 8.2125 19.0861 7.01397 18.4868C5.72571 17.8427 5.5 17.2303 5.5 17H2.5ZM5.5 17V7H2.5V17H5.5ZM12 1.5C9.60849 1.5 7.36922 1.98149 5.67233 2.82993C4.06515 3.63352 2.5 5.02119 2.5 7H5.5C5.5 6.76967 5.72571 6.15734 7.01397 5.51321C8.2125 4.91395 9.97324 4.5 12 4.5V1.5ZM21.5 7C21.5 5.02119 19.9348 3.63352 18.3277 2.82993C16.6308 1.98149 14.3915 1.5 12 1.5V4.5C14.0268 4.5 15.7875 4.91395 16.986 5.51321C18.2743 6.15734 18.5 6.76967 18.5 7H21.5Z" fill="white" mask="url(#path-1-inside-1_1080_13650)"/>
<path fill-rule="evenodd" clip-rule="evenodd" d="M12 14H8V16H8.01835C8.21208 16.5462 9.92078 17.275 12 17.275C14.0793 17.275 15.788 16.5462 15.9817 16H16V15.9034C16 15.9023 16 15.9011 16 15.9C16 15.8989 16 15.8977 16 15.8966V14H12Z" fill="white"/>
<path d="M19.25 7C19.25 7.66745 18.6894 8.47361 17.3214 9.15761C15.9983 9.81917 14.118 10.25 12 10.25C9.88205 10.25 8.00168 9.81917 6.67856 9.15761C5.31057 8.47361 4.75 7.66745 4.75 7C4.75 6.33255 5.31057 5.52639 6.67856 4.84239C8.00168 4.18083 9.88205 3.75 12 3.75C14.118 3.75 15.9983 4.18083 17.3214 4.84239C18.6894 5.52639 19.25 6.33255 19.25 7Z" stroke="white" stroke-width="1.5"/>
</svg>
