<svg width="21" height="20" viewBox="0 0 21 20" fill="none" xmlns="http://www.w3.org/2000/svg">
<path d="M20.1999 12.419C18.8643 17.7762 13.4384 21.0365 8.08054 19.7006C2.72495 18.365 -0.535331 12.9387 0.800828 7.58197C2.13581 2.22419 7.56178 -1.03634 12.918 0.299234C18.2754 1.63481 21.5355 7.0617 20.1998 12.4191L20.1999 12.419H20.1999Z" fill="#F7931A"/>
<path d="M14.9095 8.57528C15.1086 7.2445 14.0954 6.52915 12.71 6.05194L13.1594 4.24928L12.0621 3.97585L11.6246 5.73105C11.3361 5.6591 11.0398 5.59131 10.7454 5.5241L11.1861 3.75732L10.0894 3.48389L9.63975 5.28596C9.40102 5.23161 9.16655 5.17789 8.93906 5.12129L8.94033 5.11562L7.42709 4.73773L7.13518 5.90976C7.13518 5.90976 7.94931 6.09638 7.93215 6.10786C8.37651 6.21877 8.45687 6.51292 8.44353 6.74608L7.93157 8.79973C7.96217 8.8075 8.00186 8.81875 8.04565 8.83634C8.00904 8.82725 7.97008 8.81733 7.92966 8.80765L7.21207 11.6845C7.15776 11.8195 7.01992 12.0221 6.70925 11.9452C6.72025 11.9611 5.91169 11.7462 5.91169 11.7462L5.36688 13.0023L6.79488 13.3582C7.06054 13.4249 7.32087 13.4946 7.57724 13.5601L7.12316 15.3835L8.21922 15.6569L8.66891 13.8529C8.96834 13.9342 9.25893 14.0092 9.5434 14.0798L9.09523 15.8753L10.1926 16.1488L10.6467 14.3288C12.5178 14.683 13.9248 14.5402 14.517 12.8477C14.9943 11.4851 14.4933 10.6991 13.5089 10.1865C14.2259 10.0212 14.7659 9.54959 14.9099 8.57543L14.9096 8.57518L14.9095 8.57528ZM12.4024 12.091C12.0633 13.4536 9.76898 12.717 9.02514 12.5323L9.62772 10.1167C10.3715 10.3024 12.7568 10.6698 12.4024 12.091H12.4024ZM12.7418 8.55553C12.4324 9.79501 10.5228 9.1653 9.9034 9.01089L10.4497 6.82008C11.0692 6.97449 13.064 7.26268 12.7419 8.55553H12.7418Z" fill="white"/>
</svg>
