<svg width="76" height="20" viewBox="0 0 76 20" fill="none" xmlns="http://www.w3.org/2000/svg">
<g id="LayerZero_Logo_Full 1" clip-path="url(#clip0_17_50299)">
<path id="Vector" d="M5.88184 0.102051C5.11928 0.105769 4.36492 0.257062 3.66187 0.54732C2.95881 0.837576 2.32083 1.26113 1.78434 1.79374C1.24786 2.32633 0.823389 2.95757 0.535169 3.6514C0.246949 4.34523 0.100635 5.08806 0.104569 5.83748V7.73193H4.79864V4.98726C4.79859 4.85836 4.82437 4.73071 4.87454 4.61161C4.9247 4.49251 4.99825 4.3843 5.09099 4.29314C5.18372 4.20199 5.29383 4.12971 5.415 4.08039C5.53619 4.03107 5.66606 4.0057 5.79723 4.00572H5.96645C6.09763 4.0057 6.22751 4.03107 6.34871 4.08039C6.46989 4.1297 6.58001 4.20199 6.67276 4.29314C6.76552 4.3843 6.83908 4.49251 6.88927 4.61161C6.93945 4.73071 6.96527 4.85835 6.96525 4.98726V12.3451C7.58168 12.3451 8.19209 12.2257 8.76161 11.994C9.33114 11.7622 9.84862 11.4224 10.2845 10.994C10.7204 10.5656 11.0661 10.0571 11.3021 9.49735C11.5379 8.93764 11.6593 8.33773 11.6593 7.73193V5.83748C11.6627 4.31907 11.0542 2.86109 9.96706 1.78219C9.4336 1.2498 8.79766 0.827051 8.09629 0.538598C7.39493 0.250145 6.64215 0.101739 5.88184 0.102051Z" fill="white"/>
<path id="Vector_2" d="M5.96668 16.0703H5.79746C5.66631 16.0704 5.53645 16.045 5.41528 15.9957C5.29411 15.9463 5.18402 15.8741 5.09128 15.783C4.99855 15.6919 4.925 15.5837 4.87483 15.4646C4.82466 15.3455 4.79884 15.2179 4.79886 15.089V7.7312C4.18241 7.73115 3.57199 7.85043 3.00245 8.08223C2.43292 8.31405 1.91544 8.65384 1.47954 9.08222C1.04365 9.5106 0.697877 10.0192 0.461997 10.5789C0.226116 11.1386 0.104742 11.7385 0.104795 12.3443V14.2124C0.096975 14.9629 0.240636 15.7075 0.527469 16.4031C0.814302 17.0987 1.23861 17.7314 1.77587 18.2649C2.31313 18.7984 2.95265 19.2218 3.65748 19.5108C4.36232 19.7998 5.11846 19.9486 5.88216 19.9486C6.64588 19.9486 7.40202 19.7998 8.10684 19.5108C8.81167 19.2218 9.45121 18.7984 9.98846 18.2649C10.5257 17.7314 10.95 17.0987 11.2368 16.4031C11.5237 15.7075 11.6673 14.9629 11.6595 14.2124V12.3443H6.96547V15.089C6.96547 15.2179 6.93963 15.3455 6.88943 15.4646C6.83924 15.5837 6.76566 15.6919 6.67292 15.783C6.58016 15.8741 6.47006 15.9463 6.34887 15.9957C6.2277 16.045 6.09783 16.0704 5.96668 16.0703Z" fill="white"/>
<path id="Vector_3" d="M19.6837 5.92395H18.0386V14.1262H22.8673V12.5798H19.684L19.6837 5.92395Z" fill="white"/>
<path id="Vector_4" d="M28.137 8.95827C27.9049 8.67486 27.6078 8.44956 27.2699 8.30088C26.932 8.1522 26.5632 8.08435 26.1934 8.10291C25.8072 8.09992 25.4248 8.17842 25.072 8.33311C24.7193 8.48778 24.4044 8.71505 24.1486 8.99955C23.5996 9.60419 23.2961 10.3862 23.2961 11.1967C23.2961 12.0071 23.5996 12.7891 24.1486 13.3937C24.4045 13.6781 24.7194 13.9053 25.0721 14.0599C25.4249 14.2145 25.8073 14.293 26.1934 14.29C27.0282 14.29 27.676 14.0049 28.137 13.4346V14.126H29.6751V8.2674H28.137V8.95827ZM27.6662 12.3858C27.5111 12.5384 27.3257 12.6582 27.1217 12.7378C26.9177 12.8174 26.6992 12.855 26.4799 12.8486C26.2613 12.8554 26.0435 12.818 25.8405 12.7383C25.6373 12.6587 25.4531 12.5387 25.2993 12.3858C24.9999 12.0595 24.8342 11.6357 24.8342 11.1964C24.8342 10.757 24.9999 10.3332 25.2993 10.0069C25.4532 9.85418 25.6374 9.73426 25.8405 9.65466C26.0436 9.57507 26.2613 9.5375 26.4799 9.54429C26.6992 9.53789 26.9176 9.57565 27.1216 9.6552C27.3257 9.73475 27.511 9.85442 27.6662 10.0069C27.969 10.3316 28.137 10.7559 28.137 11.1964C28.137 11.6368 27.969 12.0611 27.6662 12.3858Z" fill="white"/>
<path id="Vector_5" d="M33.6382 12.2051L32.0833 8.26727H30.4021L32.8456 13.9388C32.7434 14.2772 32.5422 14.5786 32.2672 14.8058C31.9783 14.9984 31.6316 15.0894 31.2834 15.0638V16.4701C31.9622 16.5318 32.641 16.3506 33.1948 15.9599C33.7063 15.5804 34.1172 14.9724 34.4276 14.136L36.601 8.26766H34.9556L33.6382 12.2051Z" fill="white"/>
<path id="Vector_6" d="M39.9298 8.10334C39.5104 8.08885 39.0926 8.16 38.7027 8.31231C38.3129 8.46463 37.9593 8.69481 37.6646 8.98825C37.0954 9.58955 36.78 10.3809 36.7822 11.2022C36.7843 12.0234 37.104 12.8131 37.6763 13.4114C38.2726 13.9972 39.0635 14.2901 40.0491 14.2902C41.1934 14.2902 42.0599 13.8724 42.6482 13.0368L41.4083 12.3334C41.2507 12.5301 41.0468 12.6861 40.8141 12.7882C40.5815 12.8902 40.3272 12.9352 40.0729 12.9193C39.1587 12.9193 38.5982 12.5523 38.3916 11.8181H42.8868C42.9252 11.6131 42.9451 11.4051 42.9463 11.1966C42.9691 10.3806 42.6627 9.58881 42.0939 8.99382C41.8185 8.70259 41.4829 8.47247 41.1096 8.3189C40.7364 8.16533 40.3342 8.09185 39.9298 8.10334ZM38.3679 10.6461C38.436 10.3019 38.6261 9.99252 38.9043 9.77298C39.2002 9.558 39.5619 9.44848 39.9296 9.46255C40.2656 9.45824 40.5941 9.5611 40.8658 9.75568C41.1546 9.9743 41.3485 10.2925 41.4081 10.6459L38.3679 10.6461Z" fill="white"/>
<path id="Vector_7" d="M45.5572 9.27534V8.26736H44.019V14.1262H45.5572V11.3258C45.5572 10.7634 45.742 10.361 46.1115 10.1188C46.4815 9.87653 46.9294 9.77645 47.3696 9.83756V8.15068C46.9829 8.14586 46.6021 8.24296 46.2666 8.4319C45.9353 8.62083 45.6836 8.91999 45.5572 9.27534Z" fill="white"/>
<path id="Vector_8" d="M54.8689 7.1925V5.92395H49.3979V7.47076H52.7842L49.3098 12.8344V14.126H54.9353V12.5796H51.3941L54.8689 7.1925Z" fill="white"/>
<path id="Vector_9" d="M58.5666 8.10334C58.1472 8.08885 57.7293 8.16 57.3394 8.31231C56.9495 8.46463 56.596 8.6948 56.3012 8.98826C55.7319 9.58953 55.4164 10.3809 55.4187 11.2022C55.4209 12.0235 55.7406 12.8132 56.3131 13.4114C56.9093 13.9972 57.7002 14.2901 58.6857 14.2902C59.83 14.2902 60.6964 13.8724 61.285 13.0368L60.0449 12.3334C59.8873 12.53 59.6834 12.6861 59.4508 12.7882C59.2182 12.8902 58.9639 12.9352 58.7097 12.9193C57.7953 12.9193 57.2349 12.5523 57.0285 11.8181H61.5237C61.5619 11.6131 61.5818 11.4051 61.5831 11.1966C61.6058 10.3806 61.2994 9.58881 60.7307 8.99383C60.4552 8.70258 60.1196 8.47247 59.7464 8.3189C59.3732 8.16533 58.971 8.09184 58.5666 8.10334ZM57.0047 10.6461C57.0728 10.3019 57.2629 9.99246 57.5413 9.77298C57.8371 9.55792 58.1988 9.44839 58.5666 9.46255C58.9026 9.45814 59.2311 9.56101 59.5027 9.75568C59.7916 9.97427 59.9854 10.2925 60.0449 10.6459L57.0047 10.6461Z" fill="white"/>
<path id="Vector_10" d="M64.1944 9.27533V8.26735H62.6562V14.1262H64.1944V11.3258C64.1944 10.7634 64.3792 10.361 64.7487 10.1188C65.1187 9.87655 65.5665 9.77647 66.0066 9.83757V8.15068C65.62 8.14591 65.2393 8.24301 64.9039 8.43189C64.5725 8.6208 64.3208 8.91998 64.1944 9.27533Z" fill="white"/>
<path id="Vector_11" d="M69.5116 8.10345C68.7899 8.11126 68.0933 8.36434 67.5399 8.81965C66.9865 9.27497 66.6106 9.90449 66.4758 10.6013C66.3411 11.2981 66.456 12.0193 66.8009 12.6423C67.1457 13.2654 67.6994 13.7518 68.368 14.0193C69.0364 14.2866 69.7785 14.3184 70.468 14.1092C71.1576 13.9 71.7523 13.4626 72.1511 12.8714C72.5498 12.2802 72.7281 11.5716 72.6555 10.8659C72.5829 10.1603 72.2641 9.50098 71.7531 9.00008C71.4619 8.70772 71.1127 8.47726 70.7271 8.32303C70.3416 8.16878 69.9279 8.09406 69.5116 8.10345ZM70.6681 12.357C70.5173 12.5066 70.3369 12.6244 70.138 12.7028C69.939 12.7813 69.726 12.819 69.5116 12.8134C69.2981 12.8194 69.0857 12.7819 68.8875 12.7033C68.6895 12.6248 68.5101 12.5069 68.3606 12.357C68.0653 12.0403 67.9016 11.6264 67.9016 11.1969C67.9016 10.7673 68.0653 10.3534 68.3606 10.0368C68.5101 9.88691 68.6895 9.76901 68.8877 9.69047C69.0857 9.61192 69.2981 9.5744 69.5116 9.58033C69.726 9.57481 69.939 9.6125 70.1379 9.691C70.3369 9.7695 70.5173 9.88716 70.6681 10.0368C70.967 10.3517 71.1333 10.7662 71.1333 11.1969C71.1333 11.6275 70.967 12.0421 70.6681 12.357Z" fill="white"/>
<path id="Vector_12" d="M75.8957 12.3214H74.0237V14.126H75.8957V12.3214Z" fill="white"/>
</g>
<defs>
<clipPath id="clip0_17_50299">
<rect width="76" height="20" fill="white"/>
</clipPath>
</defs>
</svg>
