<svg width="18" height="26" viewBox="0 0 18 26" fill="none" xmlns="http://www.w3.org/2000/svg">
<g id="Frame" clip-path="url(#clip0_4930_1974)">
<path id="Vector" d="M11.2358 5.18916L11.5242 4.79697L11.8126 4.40479L14.1306 1.25635L14.6108 0.604785C14.4681 0.536035 14.3116 0.498535 14.1506 0.498535H3.72028C3.55153 0.498535 3.38738 0.53916 3.24011 0.61416C3.09284 0.68916 2.96244 0.798535 2.86119 0.936035L1.75664 2.4376L0.652099 3.93916C0.463406 4.19697 0.458804 4.50947 0.579997 4.75791C0.70119 5.00635 0.949713 5.18916 1.26574 5.18916L9.70324 5.18604H11.2373L11.2358 5.18916Z" fill="#86EAE0"/>
<path id="Vector_2" d="M8.95598 12.8405C8.96518 12.8874 8.97592 12.9358 8.99126 12.9812C9.02501 13.0858 9.07564 13.1843 9.13854 13.2733C9.14314 13.2796 9.14621 13.2858 9.15081 13.2905L14.6889 20.8108H17.8721C17.8721 20.5796 17.8 20.3483 17.6573 20.1546L13.2177 14.1249L8.97899 8.36865C8.95138 8.46709 8.93604 8.57021 8.93604 8.6749V12.6327C8.93604 12.6624 8.93604 12.6921 8.9391 12.7218C8.94217 12.7608 8.94831 12.7999 8.95598 12.839V12.8405Z" fill="#86EAE0"/>
<path id="Vector_3" d="M15.0218 9.42168L17.6574 5.84355C17.8 5.64981 17.8721 5.41855 17.8721 5.1873C17.8721 5.18418 17.8721 5.18262 17.8721 5.17949C17.8721 5.15449 17.8721 5.12793 17.8691 5.10293C17.8691 5.0873 17.866 5.07168 17.8645 5.05605C17.8645 5.04355 17.8614 5.03262 17.8599 5.02012C17.8568 4.9998 17.8522 4.97949 17.8491 4.96074C17.8491 4.95449 17.8461 4.94668 17.8445 4.94043C17.8399 4.91699 17.8338 4.89512 17.8261 4.87168C17.8261 4.86855 17.8246 4.86387 17.823 4.86074C17.8154 4.83574 17.8062 4.8123 17.797 4.7873C17.797 4.7873 17.797 4.78418 17.797 4.78262C17.7878 4.75762 17.7755 4.73262 17.7647 4.70762C17.7402 4.65762 17.7126 4.60762 17.6804 4.56074C17.6727 4.5498 17.6666 4.53887 17.6589 4.52949L16.1739 2.51387L15.2473 1.25605C15.2473 1.25605 15.2366 1.24355 15.2304 1.23574L15.0095 0.935742C14.9083 0.798242 14.7779 0.688867 14.6306 0.613867C14.6245 0.610742 14.6168 0.607617 14.6107 0.604492L14.1305 1.25605L11.8125 4.40449L11.5241 4.79668L11.2357 5.18887L9.15082 8.02012C9.07258 8.12637 9.01429 8.24512 8.979 8.37012L12.3878 12.9998L15.0233 9.42168H15.0218Z" fill="#3FABD1"/>
<path id="Vector_4" d="M7.5863 18.2076L5.23147 15.0092C4.92465 14.592 4.31102 14.592 4.0042 15.0092L0.214996 20.1561C0.0232346 20.417 -0.0396632 20.7451 0.0263028 21.0498C0.0263028 21.0561 0.0293709 21.0639 0.030905 21.0717C0.030905 21.0779 0.0339732 21.0826 0.0355073 21.0889C0.0554505 21.167 0.0845982 21.2451 0.121416 21.3186C0.121416 21.3186 0.121416 21.3186 0.121416 21.3201C0.135223 21.3451 0.14903 21.3717 0.164371 21.3951C0.170507 21.4045 0.176644 21.4139 0.184314 21.4232C0.195053 21.4389 0.204257 21.4545 0.214996 21.4686L0.939087 22.4529L2.17556 24.1326L2.85977 25.0623C2.96102 25.1998 3.09142 25.3092 3.23869 25.3842C3.24483 25.3873 3.2525 25.3904 3.26017 25.3951L6.63363 20.8123L7.5863 19.5201C7.87318 19.1311 7.87318 18.5967 7.5863 18.2076Z" fill="#86EAE0"/>
<path id="Vector_5" d="M16.6421 20.8125H6.63519L3.26172 25.3953C3.40286 25.4641 3.55933 25.5 3.72041 25.5H14.1492C14.4867 25.5 14.8058 25.3375 15.0083 25.0625L16.415 23.1547L17.1483 22.1594L17.2419 22.0328L17.6638 21.4594C17.8034 21.2672 17.8724 21.0391 17.8724 20.8125H16.6436H16.6421Z" fill="#3FABD1"/>
</g>
<defs>
<clipPath id="clip0_4930_1974">
<rect width="18" height="25" fill="white" transform="translate(0 0.5)"/>
</clipPath>
</defs>
</svg>
