<svg width="36" height="36" viewBox="0 0 36 36" fill="none" xmlns="http://www.w3.org/2000/svg">
<g clip-path="url(#clip0_1330_44112)">
<path d="M19.7421 16.595L19.9921 16.2636L20.2421 15.9322L22.2528 13.2655L22.6691 12.7138C22.5456 12.6557 22.4098 12.6243 22.2696 12.6243H13.2248C13.0784 12.6243 12.9357 12.6588 12.8079 12.7224C12.6801 12.786 12.5672 12.8785 12.4791 12.9952L11.5212 14.2677L10.5633 15.5403C10.3989 15.7582 10.3952 16.0229 10.5007 16.2334C10.6061 16.4432 10.8214 16.5987 11.0956 16.5987L18.4119 16.5969H19.7421V16.595Z" fill="#86EAE0"/>
<path d="M17.7655 23.0757C17.7903 23.2146 17.8505 23.3436 17.9342 23.4578L22.7367 29.828H25.4975C25.4975 29.6323 25.4354 29.4367 25.3114 29.2719L21.4612 24.165L17.786 19.2901C17.7611 19.3741 17.7487 19.4611 17.7487 19.5493V22.9017C17.7487 22.9603 17.7543 23.0183 17.7661 23.0757H17.7655Z" fill="#86EAE0"/>
<path d="M23.0258 20.18L25.3107 17.1492C25.5608 16.8221 25.5552 16.3605 25.3107 16.0377L24.0234 14.3307C23.8702 14.127 23.1524 13.176 23.014 12.9945C22.9259 12.8779 22.813 12.7853 22.6859 12.7218C22.6803 12.7187 22.6747 12.7162 22.6691 12.7137L22.2528 13.2655L20.2421 15.9322L19.9921 16.2636L19.7421 16.595L17.9336 18.9933C17.866 19.0827 17.8157 19.1833 17.7847 19.2895L20.7409 23.2102L23.0258 20.1794V20.18Z" fill="#3FABD1"/>
<path d="M16.5781 27.621L14.5357 24.9124C14.2696 24.5594 13.7373 24.5594 13.4717 24.9124L10.1849 29.2719C9.93486 29.6009 9.94044 30.0613 10.1849 30.3834L10.8133 31.2172L11.886 32.6403L12.4797 33.4278C12.5678 33.5445 12.6807 33.637 12.8085 33.7006C12.8147 33.7037 12.8203 33.7068 12.8265 33.7092L15.7523 29.828L16.5781 28.7332C16.8262 28.4036 16.8262 27.9506 16.5781 27.6217V27.621Z" fill="#86EAE0"/>
<path d="M24.431 29.8274H15.7523L12.8265 33.7086C12.9494 33.7666 13.0852 33.7975 13.2248 33.7975H22.2683C22.5612 33.7975 22.8372 33.6605 23.0128 33.4272L24.2325 31.8109C24.2753 31.7541 24.9348 30.8802 24.9503 30.8605L25.3163 30.3754C25.4367 30.2125 25.4975 30.0199 25.4975 29.8274H24.431V29.8274Z" fill="#3FABD1"/>
<path d="M12.1565 14.6855C12.0796 14.4782 11.9784 14.2862 11.8779 14.0949C11.8196 13.9844 11.7594 13.8696 11.7086 13.7579C11.4759 13.2506 11.4337 12.7526 11.5789 12.2348C11.6844 11.8584 11.6571 11.4689 11.6304 11.0925L11.6273 11.0493C11.6143 10.8592 11.5032 10.7154 11.4145 10.5994C11.3872 10.5642 11.3593 10.5278 11.3407 10.4975C11.2836 10.4056 11.185 10.3507 11.0764 10.3507C11.0497 10.3507 11.0237 10.3537 10.9995 10.3605L10.845 10.3994C10.7215 10.4309 10.6309 10.5327 10.6142 10.658C10.6024 10.7462 10.5931 10.8357 10.5838 10.9246C10.5633 11.1246 10.5435 11.3128 10.4957 11.4862C10.4777 11.551 10.4275 11.6208 10.3989 11.6504C10.3462 11.643 10.263 11.6053 10.2295 11.5714C10.1154 11.4547 10.0137 11.2881 9.9088 11.0474C9.80458 10.8067 9.71214 10.5512 9.6228 10.3038C9.57503 10.1704 9.52664 10.0371 9.47639 9.90445C9.42862 9.77917 9.38147 9.65327 9.33432 9.52799L9.32439 9.50207C9.1513 9.04229 8.97263 8.56647 8.77968 8.10299L8.76603 8.06966C8.70027 7.90674 8.54579 7.5241 8.04452 7.5241C8.01722 7.5241 7.98868 7.52534 7.9589 7.52781C7.79698 7.54077 7.67166 7.67777 7.67414 7.83947C7.67972 8.25975 7.74921 8.66583 7.83978 9.06081C7.78457 9.01514 7.71509 8.98984 7.64126 8.98984C7.59411 8.98984 7.54882 9.00033 7.50663 9.02069L7.36518 9.08858C7.27833 9.13055 7.21505 9.21139 7.19581 9.3052C7.104 9.75696 7.21256 10.1748 7.31803 10.579C7.31803 10.5809 7.31927 10.5827 7.31927 10.5846C6.98674 10.0649 6.77643 9.47924 6.5717 8.90837C6.43707 8.53315 6.3012 8.14002 6.18085 7.79318C6.03257 7.3655 5.87934 6.923 5.72175 6.48852L5.70873 6.45211C5.64793 6.27931 5.50648 5.87569 4.9413 5.87569C4.93013 5.87569 4.91896 5.87569 4.90655 5.87569C4.8197 5.87816 4.73719 5.91704 4.68011 5.98308C4.62303 6.0485 4.59698 6.13551 4.60752 6.22192C4.61869 6.31325 4.62676 6.40583 4.63482 6.49593C4.65405 6.70823 4.67205 6.9088 4.72478 7.11617C4.84638 7.59384 4.97852 8.07337 5.10694 8.53685L5.10942 8.54549C5.1634 8.73989 5.21799 8.93861 5.27197 9.13734C5.23785 9.0929 5.20372 9.04908 5.1696 9.00527C4.90904 8.67015 4.63916 8.32331 4.4456 7.95919C4.23653 7.56545 4.08267 7.12049 3.9344 6.6891C3.87049 6.50272 3.80411 6.31078 3.73339 6.12194C3.55719 5.65167 3.26809 5.21472 2.82389 4.74631C2.76557 4.68459 2.68306 4.64941 2.59806 4.64941C2.51927 4.64941 2.44358 4.67904 2.38651 4.73273C2.01923 5.0734 1.94044 5.22768 2.03909 5.7356C2.39333 7.55743 2.94673 9.09105 3.72532 10.4031C3.68934 10.3741 3.64963 10.3463 3.60683 10.3216C3.47902 10.247 3.34378 10.2315 3.23521 10.2192C3.20109 10.2155 3.16945 10.2118 3.13967 10.2062C3.12044 10.2025 3.1012 10.2007 3.08197 10.2007C3.00752 10.2007 2.93556 10.2272 2.87972 10.2754C2.80776 10.3371 2.76805 10.4272 2.77177 10.5216C2.77239 10.5426 2.76991 10.5771 2.76743 10.6117C2.75751 10.7413 2.74324 10.9191 2.86049 11.0678C3.30345 11.6312 3.85685 12.2323 4.81536 12.2323H4.85692C5.05421 12.2323 5.28686 12.2922 5.4798 12.3934C5.61008 12.4619 5.74781 12.5372 5.89733 12.6218C5.87499 12.6477 5.85452 12.6773 5.83529 12.7094C5.68453 12.9631 5.88058 13.2161 6.1734 13.5469C6.27949 13.6666 6.41784 13.7215 6.52889 13.766C6.55308 13.7758 6.57666 13.7851 6.59961 13.7956C7.08662 14.0134 7.60279 14.1239 8.13509 14.1239C8.44405 14.1239 8.76603 14.0863 9.0905 14.0128C9.2121 13.9851 9.32563 13.9709 9.42738 13.9709C9.78224 13.9709 10.0211 14.1393 10.2264 14.5343C10.2482 14.5757 10.2674 14.6263 10.2891 14.6806C10.3313 14.7886 10.3834 14.9225 10.4771 15.0385L10.5019 15.0694C10.6713 15.2805 10.8636 15.5205 11.1359 15.6489C11.2228 15.6902 11.3245 15.7106 11.4381 15.7106C11.6391 15.7106 11.8624 15.6446 12.0213 15.5384C12.319 15.3391 12.2018 14.8065 12.1571 14.6855H12.1565Z" fill="#041110"/>
<path d="M7.3658 13.1297C6.78697 12.7902 6.21745 12.4323 5.62373 12.1213C5.39046 11.9991 5.10136 11.9213 4.83893 11.9244C4.02869 11.9349 3.54603 11.4405 3.1043 10.8783C3.04164 10.7987 3.08631 10.6345 3.08135 10.5099C3.20543 10.5339 3.34688 10.5284 3.44924 10.5883C3.59194 10.6716 3.69678 10.8172 3.83513 10.9116C3.98899 11.0166 4.1627 11.0937 4.32772 11.1826C4.36309 11.1529 4.39845 11.1227 4.43443 11.0931C4.38852 10.9703 4.36433 10.8326 4.2936 10.7259C3.26871 9.18547 2.69298 7.47349 2.3437 5.67697C2.26677 5.28261 2.30213 5.23323 2.5993 4.95737C2.95603 5.33383 3.2594 5.73806 3.44366 6.22932C3.67941 6.85757 3.85995 7.51546 4.17263 8.10299C4.46918 8.66089 4.90593 9.14474 5.28065 9.66129C5.37185 9.78657 5.46243 9.91186 5.55363 10.0371C5.61318 9.989 5.67212 9.94024 5.73168 9.89211C5.71245 9.73658 5.71183 9.57674 5.6715 9.42677C5.45995 8.63065 5.22854 7.83885 5.02629 7.04087C4.95805 6.77179 4.95308 6.48667 4.91648 6.1855C5.31105 6.17439 5.36441 6.41014 5.43079 6.59405C5.72237 7.39758 5.99225 8.20852 6.28073 9.01328C6.55929 9.79028 6.84467 10.566 7.39558 11.206C7.49236 11.3183 7.59783 11.4233 7.77402 11.6121C7.83792 10.7771 7.35215 10.0976 7.50105 9.36691C7.5482 9.34408 7.59535 9.32186 7.64312 9.29902C7.74983 9.45763 7.895 9.60328 7.95518 9.77793C8.12827 10.2828 8.26538 10.7999 8.41985 11.3109C8.4608 11.4461 8.51477 11.5769 8.61838 11.6954C8.70213 10.3692 8.00357 9.16202 7.98558 7.83576C8.35099 7.80614 8.42047 8.04374 8.4943 8.22086C8.73998 8.81271 8.96022 9.41505 9.18728 10.0143C9.3337 10.4 9.46088 10.7931 9.62528 11.1708C9.72144 11.3918 9.84242 11.6183 10.0081 11.7874C10.1179 11.8997 10.3462 11.9892 10.4864 11.9528C10.6173 11.9188 10.7538 11.7201 10.7953 11.5689C10.8729 11.2887 10.8841 10.99 10.9225 10.6993C10.974 10.6864 11.0255 10.6734 11.0764 10.6598C11.1608 10.7969 11.3078 10.9289 11.3177 11.0709C11.3425 11.4307 11.3748 11.8133 11.2799 12.1521C11.1086 12.7637 11.1701 13.3278 11.4263 13.8863C11.5665 14.1918 11.7489 14.4794 11.8655 14.7923C11.9207 14.9416 11.9307 15.2268 11.8482 15.2823C11.6962 15.3835 11.4213 15.4421 11.2681 15.3699C11.0497 15.2669 10.8779 15.0435 10.7184 14.846C10.6161 14.7188 10.5788 14.5423 10.5013 14.3936C10.1768 13.7678 9.7109 13.5555 9.02102 13.7129C8.23498 13.8919 7.46755 13.8468 6.72679 13.5148C6.61512 13.4648 6.48112 13.4284 6.40543 13.3432C6.27639 13.1976 6.05677 12.9427 6.10144 12.8674C6.24971 12.6181 6.43025 12.8705 6.59961 12.9322C6.84219 13.0211 7.08724 13.1038 7.33106 13.1889C7.34223 13.1692 7.35401 13.15 7.36518 13.1303L7.3658 13.1297Z" fill="#FFEA93"/>
<path d="M9.62467 11.1696C9.46088 10.7919 9.33308 10.3988 9.18667 10.0131C8.95898 9.41381 8.73936 8.81147 8.49369 8.21962C8.42048 8.0425 8.35038 7.80489 7.98496 7.83452C7.98558 7.88883 7.98806 7.94314 7.99117 7.99745C8.46081 8.60657 8.6674 9.46688 8.84421 10.1846C9.01916 10.8962 8.99807 12.1299 10.0503 12.0892C10.1625 12.0848 10.2674 12.0342 10.3369 11.9515C10.2159 11.9299 10.0838 11.8639 10.0081 11.7868C9.84243 11.617 9.72083 11.3912 9.62529 11.1702L9.62467 11.1696ZM11.8649 14.7917C11.7483 14.4788 11.5659 14.1906 11.4257 13.8857C11.1695 13.3272 11.108 12.7631 11.2793 12.1515C11.3742 11.8127 11.3425 11.4294 11.3171 11.0702C11.3072 10.9283 11.1601 10.7956 11.0758 10.6592C11.0243 10.6722 10.9728 10.6851 10.9219 10.6987C10.9014 10.8524 10.889 11.0079 10.8698 11.1616C10.9219 11.3782 10.9598 11.5979 10.9778 11.8213C10.992 11.9966 10.9889 12.17 10.9815 12.3428C10.8574 12.852 10.7829 13.3716 10.8766 13.8956C10.9312 14.1998 11.0646 14.4559 11.1986 14.7306C11.3022 14.9441 11.3134 15.1879 11.4052 15.4014C11.5535 15.41 11.7346 15.3582 11.8482 15.2829C11.9313 15.2274 11.9214 14.9422 11.8655 14.7929L11.8649 14.7917ZM3.71044 11.3276C3.62792 11.2591 3.53362 11.2542 3.45359 11.285C3.8128 11.6584 4.23529 11.9318 4.84018 11.9244C5.1026 11.9207 5.39109 11.9984 5.62436 12.1212C6.21808 12.4329 6.78698 12.7909 7.36643 13.1297C7.35526 13.1494 7.34347 13.1686 7.33231 13.1883C7.08849 13.1031 6.84343 13.0204 6.60086 12.9316C6.43149 12.8692 6.25096 12.6174 6.10268 12.8668C6.08531 12.8958 6.10702 12.9507 6.14735 13.0161C6.34464 13.1062 6.53758 13.2043 6.73859 13.2877C6.98178 13.3889 7.30687 13.466 7.46755 13.2019C7.51222 13.1284 7.51408 13.026 7.46755 12.9526C7.40489 12.8538 7.31928 12.8069 7.22188 12.7717C6.86577 12.341 6.21497 12.1472 5.6988 12.0077C5.4128 11.9305 5.11067 11.8799 4.81536 11.8108C4.60815 11.646 4.39908 11.4837 4.14161 11.3868L3.71106 11.327L3.71044 11.3276ZM8.61963 11.2788C8.62583 11.2517 8.62397 11.2251 8.61528 11.1998C8.61714 11.2264 8.61839 11.2523 8.61963 11.2788ZM7.95456 9.77731C7.89438 9.60266 7.74921 9.45701 7.6425 9.2984C7.59535 9.32123 7.5482 9.34345 7.50043 9.36629C7.49423 9.39591 7.48989 9.42553 7.48554 9.45454C7.56992 9.56871 7.65181 9.68474 7.72191 9.80817C7.82118 9.98159 7.88012 10.1624 7.91672 10.3587C7.98744 10.7401 8.04576 11.1387 8.39008 11.3776C8.40745 11.3899 8.42792 11.3967 8.4484 11.3986C8.43785 11.3696 8.42792 11.3399 8.41862 11.3103C8.26352 10.7993 8.12703 10.2821 7.95394 9.77731H7.95456ZM5.77077 8.88923C6.009 9.37554 6.30865 9.81619 6.52083 10.3173C6.67096 10.6722 6.84902 11.127 7.30811 11.0992C6.81366 10.4802 6.5444 9.74707 6.28074 9.01204C5.99225 8.20728 5.72238 7.39634 5.43079 6.59281C5.36441 6.40952 5.31106 6.17315 4.91649 6.18426C4.92703 6.27066 4.9351 6.35582 4.94254 6.43914C5.33091 7.20934 5.38923 8.10977 5.77077 8.88861V8.88923ZM4.87368 9.63228C4.94378 9.69029 5.03622 9.70387 5.11749 9.68412C5.13238 9.71621 5.14851 9.74769 5.16216 9.7804C5.22048 9.92111 5.36317 9.96307 5.48105 9.93653C5.41466 9.8452 5.34766 9.75324 5.28128 9.6619C4.90594 9.14535 4.4698 8.6615 4.17325 8.1036C3.86057 7.51545 3.68004 6.85757 3.44429 6.22993C3.26003 5.73867 2.95666 5.33444 2.59993 4.95798C2.38093 5.16164 2.30462 5.24248 2.3102 5.42948C2.53541 5.86395 2.76371 6.29658 2.9976 6.72673C3.29974 7.28155 3.60931 7.83267 3.92633 8.37885C4.19124 8.83492 4.46112 9.29223 4.8743 9.6329L4.87368 9.63228Z" fill="#BAAB4F"/>
<path d="M33.9467 5.50296C33.933 5.44248 33.9206 5.38508 33.9138 5.33448C33.8958 5.19932 33.7928 5.09379 33.6582 5.07095L33.5173 5.0475C33.5 5.04442 33.4826 5.04318 33.4646 5.04318C33.3852 5.04318 33.3095 5.07281 33.2518 5.12711C33.2239 5.15365 33.1954 5.17957 33.1662 5.20549L33.1519 5.21845C33.075 5.28819 32.995 5.3604 32.9187 5.44248C32.4416 5.95595 32.2046 6.57619 31.9757 7.17729L31.9397 7.27171C31.565 8.25113 31.1195 8.96888 30.5487 9.50704C30.622 9.27622 30.6964 9.04541 30.7702 8.81459L30.7746 8.80163C30.9365 8.30051 31.1034 7.78148 31.256 7.26246C31.3131 7.06805 31.3174 6.87674 31.3218 6.69036C31.3236 6.6163 31.3249 6.54594 31.3298 6.47868C31.341 6.33426 31.2517 6.20343 31.1121 6.16084L30.929 6.10468C30.8993 6.09542 30.8689 6.0911 30.8379 6.0911C30.7305 6.0911 30.6325 6.14541 30.5754 6.23552C30.5407 6.29044 30.5028 6.34475 30.4619 6.404C30.3639 6.54471 30.2627 6.68974 30.1914 6.86254C30.0251 7.26246 29.8676 7.66546 29.7156 8.0555C29.584 8.39123 29.4488 8.73868 29.3092 9.07873C29.084 9.628 28.8358 10.234 28.4661 10.7611C28.5827 10.3359 28.6838 9.89522 28.5436 9.4052C28.5138 9.30029 28.4289 9.21821 28.3221 9.19044C28.2967 9.18427 28.2713 9.18056 28.2452 9.18056C28.1627 9.18056 28.0827 9.21389 28.025 9.2719C27.9995 9.29782 27.9741 9.32374 27.9499 9.3509C28.0306 9.07194 28.1125 8.78559 28.1881 8.50108C28.226 8.35913 28.2198 8.22274 28.2136 8.09129C28.2111 8.03883 28.2086 7.98391 28.2092 7.9296C28.2105 7.83517 28.1683 7.7463 28.0945 7.68644C28.0392 7.642 27.9698 7.61732 27.899 7.61732C27.8767 7.61732 27.8544 7.61979 27.832 7.62472C27.2954 7.74322 27.1372 8.13017 27.0317 8.38752C27.0181 8.42085 27.005 8.45294 26.9908 8.48503C26.8084 8.89667 26.6303 9.31634 26.4585 9.72304L26.4548 9.7323C26.2767 10.1526 26.0931 10.5877 25.9045 11.0104C25.7891 11.269 25.6619 11.4683 25.526 11.6029C25.5018 11.6269 25.4168 11.6609 25.33 11.6664C25.3083 11.63 25.2785 11.5702 25.2562 11.4992C25.2406 11.4504 25.2413 11.3733 25.2413 11.2912C25.2413 11.2159 25.2413 11.1388 25.2313 11.0549C25.2183 10.9468 25.1941 10.8469 25.1631 10.721C25.1482 10.6593 25.1308 10.5895 25.1122 10.5062C25.0868 10.3939 25.0018 10.305 24.8907 10.2754C24.8647 10.268 24.8374 10.2649 24.8095 10.2649C24.7232 10.2649 24.6401 10.3013 24.5812 10.3643C24.5315 10.418 24.4838 10.4618 24.441 10.5013C24.333 10.6006 24.2207 10.7031 24.1996 10.8728C24.1891 10.9573 24.1754 11.045 24.1618 11.1301C24.1097 11.4634 24.0557 11.8084 24.1382 12.1484C24.284 12.7477 24.194 13.3044 23.8547 13.8993C23.8162 13.9672 23.7765 14.0338 23.7362 14.1011L23.7312 14.1097C23.6233 14.2924 23.511 14.4807 23.4185 14.6837C23.2982 14.9472 23.3038 15.2046 23.4353 15.4076C23.5619 15.6033 23.7809 15.7113 24.0513 15.7113C24.0811 15.7113 24.1115 15.71 24.1432 15.7069C24.2424 15.6983 24.5824 15.6514 24.7946 15.4193C24.9863 15.2095 25.1643 14.9577 25.3554 14.6251C25.5918 14.2128 25.8325 14.0443 26.1855 14.0443C26.3021 14.0443 26.4324 14.0616 26.5826 14.0968C26.8959 14.1702 27.2606 14.2486 27.6236 14.2486C27.7272 14.2486 27.8277 14.2424 27.9214 14.2295C28.4605 14.156 28.9705 13.9573 29.4649 13.7648L29.4717 13.7623C29.6777 13.6821 29.759 13.4833 29.8247 13.321C29.8434 13.2747 29.8613 13.2309 29.8775 13.2019C29.9333 13.1019 29.9284 12.9804 29.8657 12.8841C29.8545 12.8674 29.8427 12.8526 29.8291 12.8384C29.9296 12.7872 30.0313 12.7372 30.1343 12.6878C30.3254 12.5965 30.5438 12.499 30.7132 12.499C30.7249 12.499 30.7373 12.499 30.7491 12.5008C30.8254 12.5089 30.9018 12.5126 30.9762 12.5126C31.7647 12.5126 32.302 12.0694 32.637 11.7368C32.6612 11.7134 32.6885 11.6887 32.717 11.664L32.7239 11.6578C32.8883 11.5122 33.3263 11.1258 32.9373 10.687C32.7983 10.5303 32.6469 10.4976 32.5446 10.4976C32.3467 10.4976 32.1996 10.6105 32.0799 10.7197C32.9515 9.3836 33.575 7.85122 33.9808 6.05346C34.0248 5.85782 33.9808 5.6628 33.946 5.50358L33.9467 5.50296Z" fill="#041110"/>
<path d="M27.8984 7.92404C27.8959 8.11412 27.9257 8.27581 27.8873 8.42023C27.7197 9.05466 27.5218 9.68107 27.355 10.3161C27.2253 10.8098 27.1248 11.311 27.0807 11.8312C27.5895 11.1061 27.5882 10.1452 28.2446 9.48666C28.4611 10.2445 27.9822 10.9024 27.9555 11.7337C28.1249 11.5887 28.2378 11.5078 28.3321 11.4097C28.9388 10.7759 29.2714 9.98471 29.5958 9.19228C29.8967 8.45726 30.1722 7.71174 30.4774 6.97856C30.5636 6.7712 30.7156 6.59037 30.8379 6.39782C30.8987 6.41634 30.9595 6.43547 31.0203 6.45398C31.0016 6.69467 31.0246 6.9477 30.9582 7.17482C30.7218 7.9802 30.452 8.77571 30.2007 9.57739C30.148 9.74587 30.1219 9.92237 30.0835 10.0952C30.1108 10.1199 30.1387 10.1439 30.166 10.1686C30.2956 10.0847 30.4352 10.0131 30.5531 9.91497C31.3658 9.23733 31.8597 8.34617 32.2294 7.38033C32.4652 6.76441 32.686 6.14603 33.1464 5.65107C33.245 5.54492 33.3579 5.45111 33.464 5.35114C33.5111 5.35916 33.5583 5.36718 33.6061 5.3752C33.6334 5.57948 33.7215 5.79672 33.6786 5.98557C33.2717 7.78888 32.6041 9.4842 31.5141 10.9981C31.4347 11.1085 31.3869 11.2418 31.3087 11.3955C31.7021 11.4973 31.8807 11.2616 32.0997 11.1129C32.2865 10.9857 32.4918 10.65 32.7059 10.8913C32.9286 11.1431 32.5936 11.3461 32.4199 11.5189C31.9707 11.9651 31.4694 12.2645 30.782 12.1947C30.5301 12.1694 30.2435 12.2953 30.0009 12.4107C29.4358 12.681 28.888 12.9878 28.3426 13.3414C28.6137 13.2593 28.8818 13.1667 29.1566 13.0982C29.3018 13.0618 29.4569 13.0674 29.6076 13.0538C29.527 13.1994 29.4798 13.429 29.3601 13.4753C28.8799 13.6623 28.3861 13.8555 27.8804 13.924C27.484 13.9777 27.0541 13.8907 26.6545 13.7968C25.9218 13.6253 25.4677 13.808 25.0862 14.4726C24.9367 14.7337 24.7679 14.991 24.5657 15.212C24.4652 15.3218 24.2728 15.386 24.1159 15.3996C23.7287 15.4335 23.5395 15.1632 23.7008 14.8114C23.8212 14.5485 23.9806 14.3029 24.1246 14.0511C24.4776 13.4315 24.6159 12.7995 24.4397 12.0756C24.3516 11.7127 24.459 11.298 24.5073 10.9098C24.5185 10.8203 24.6494 10.745 24.8095 10.5728C24.8653 10.8203 24.9063 10.9542 24.923 11.0913C24.9429 11.2573 24.9106 11.435 24.959 11.5899C25.0043 11.7349 25.1091 11.9497 25.2165 11.9676C25.3833 11.996 25.6272 11.9368 25.7438 11.8207C25.9336 11.6331 26.0763 11.3819 26.1868 11.1345C26.5596 10.2976 26.9014 9.44655 27.2737 8.60846C27.3903 8.34555 27.4623 8.02093 27.8984 7.92465V7.92404Z" fill="#FFEA93"/>
<path d="M32.5818 10.8098C32.5743 10.8209 32.5669 10.8327 32.5601 10.8456C32.3919 11.1727 32.1258 11.4282 31.7691 11.543C31.3671 11.6726 30.9036 11.6146 30.4867 11.6677C30.0605 11.722 29.6411 11.8146 29.2354 11.9553C28.8867 12.0756 28.3916 12.2132 28.1677 12.5268C27.9735 12.7983 28.0653 13.1754 28.404 13.271C28.4158 13.2741 28.4282 13.276 28.44 13.2784C28.9531 12.9513 29.4693 12.6644 30.0009 12.4101C30.2429 12.2941 30.5301 12.1682 30.782 12.1941C31.4694 12.2638 31.9707 11.9645 32.4199 11.5183C32.5936 11.3461 32.9286 11.1425 32.7059 10.8907C32.6643 10.8438 32.6227 10.8191 32.5818 10.8098V10.8098ZM27.1397 11.3449C27.1924 10.9962 27.2669 10.6543 27.3556 10.3161C27.5225 9.68168 27.7197 9.05466 27.8879 8.42023C27.9263 8.27581 27.8966 8.11412 27.899 7.92404C27.7694 7.95243 27.6726 8.0018 27.5969 8.0629C27.4232 9.13859 26.7017 10.0834 26.9213 11.2196C26.943 11.3326 27.0479 11.3677 27.1397 11.3443V11.3449ZM27.4766 13.4117C27.2557 13.3253 27.0429 13.1852 26.8047 13.1618C26.5801 13.1396 26.3592 13.1945 26.1489 13.2821C26.0552 13.2821 25.9622 13.2895 25.8685 13.3099C25.3759 13.4173 25.0415 13.8098 24.7592 14.1986C24.7009 14.2492 24.6432 14.3004 24.5861 14.3523C24.3454 14.5732 24.0197 14.888 23.6754 14.8744C23.5643 15.1941 23.7536 15.4304 24.1165 15.3984C24.2735 15.3848 24.4658 15.3206 24.5663 15.2107C24.7685 14.9898 24.9373 14.7324 25.0868 14.4714C25.4683 13.8067 25.9225 13.624 26.6552 13.7956C27.0541 13.8888 27.4846 13.9764 27.8811 13.9227C28.3867 13.8542 28.8805 13.6611 29.3607 13.4741C29.4457 13.4408 29.4941 13.3149 29.5443 13.192C28.9686 13.3371 28.383 13.4161 27.7868 13.4173C27.6838 13.4173 27.5802 13.4148 27.4772 13.4111L27.4766 13.4117ZM25.4925 11.9491C25.3982 11.9738 25.2983 11.9812 25.2165 11.967C25.1091 11.9485 25.0043 11.7343 24.959 11.5893C24.9106 11.4344 24.9429 11.256 24.923 11.0906C24.9063 10.9536 24.8653 10.8197 24.8095 10.5722C24.6941 10.6969 24.5942 10.7703 24.5433 10.8358C24.6997 11.1912 24.5005 11.643 24.8436 11.9435C25.0477 12.1225 25.3151 12.1083 25.4925 11.9497V11.9491ZM30.2007 9.57739C30.4514 8.77632 30.7212 7.9802 30.9582 7.17482C31.0246 6.9477 31.0023 6.69529 31.0203 6.45398C30.9595 6.43547 30.8987 6.41634 30.8379 6.39782C30.7864 6.4799 30.7293 6.55952 30.6735 6.63975C30.6759 6.84834 30.5388 7.07916 30.4749 7.25937C30.3664 7.56671 30.3043 7.88948 30.2324 8.20669C30.1399 8.61278 29.8849 9.24289 30.1964 9.5922C30.1982 9.58726 30.1989 9.58171 30.2007 9.57677V9.57739ZM33.6054 5.3752C33.5583 5.36718 33.5111 5.35916 33.4634 5.35114C33.3573 5.4505 33.2444 5.5443 33.1457 5.65107C33.1048 5.69489 33.0669 5.73994 33.0297 5.78561C32.9937 6.01951 32.9745 6.25773 32.9323 6.49101C32.8417 6.98967 32.7201 7.48216 32.5675 7.96539C32.2375 9.01331 31.7598 10.0038 31.1592 10.9246C31.0339 11.1166 31.1574 11.2999 31.3261 11.3585C31.3937 11.2209 31.4409 11.0993 31.5141 10.9974C32.6041 9.48358 33.2717 7.78826 33.6786 5.98495C33.7215 5.79672 33.6334 5.57886 33.6061 5.37459L33.6054 5.3752ZM28.5108 13.2883C28.7167 13.3025 28.937 13.2056 29.1386 13.1026C28.927 13.1562 28.7192 13.2229 28.5108 13.2883ZM27.8196 10.9907C27.6869 11.1807 27.8128 11.364 27.9865 11.4214C28.0951 10.7321 28.4338 10.1476 28.2452 9.4879C28.1782 9.55517 28.118 9.62614 28.0634 9.69958C28.1838 10.16 28.0926 10.6019 27.8203 10.9907H27.8196Z" fill="#BAAB4F"/>
<path d="M23.0661 12.707C23.0531 12.7526 23.0848 12.7934 23.1282 12.8014C23.1679 12.9797 23.2175 13.1562 23.1127 13.3278C23.0097 13.4944 22.8639 13.5074 22.702 13.5413C22.7677 13.4562 22.8155 13.3593 22.8428 13.2519C22.8651 13.168 22.7417 13.1353 22.7138 13.2155C22.6691 13.3402 22.5847 13.4512 22.478 13.5309C22.4768 13.5321 22.4755 13.5321 22.4743 13.5333C22.4557 13.5346 22.4377 13.5438 22.4259 13.5636C22.3378 13.6105 22.2392 13.629 22.156 13.6827C22.1058 13.7154 22.1101 13.7968 22.1722 13.8135C22.2143 13.824 22.2578 13.8215 22.3012 13.8123C22.2423 13.8845 22.166 13.9431 22.0785 13.9734C21.8824 14.0412 21.736 13.9629 21.5598 13.8894C21.5164 13.8709 21.4823 13.8907 21.4649 13.9221C21.4426 13.9246 21.4202 13.9339 21.4053 13.9561C21.3328 14.0585 21.2223 14.1486 21.0908 14.1499C20.9549 14.1523 20.8935 14.0554 20.7831 14.0073C20.7806 14.0073 20.7781 14.0061 20.7763 14.0061C20.7601 13.9666 20.7105 13.9406 20.6671 13.9653C20.6634 13.9678 20.6602 13.969 20.6565 13.9709C20.4865 14.0702 20.3314 14.1702 20.1248 14.1622C20.0026 14.1566 19.9065 14.111 19.8115 14.0585C19.8934 14.0338 19.9685 13.9888 20.0324 13.9209C20.0839 13.866 20.0181 13.7771 19.9505 13.816C19.8494 13.8734 19.7346 13.9036 19.6198 13.8944C19.6 13.8814 19.5739 13.8771 19.5516 13.8839C19.4319 13.8561 19.3568 13.766 19.2464 13.7265C19.1912 13.7055 19.1539 13.7648 19.1608 13.8117C19.1763 13.9123 19.265 13.9808 19.3649 14.024C19.2346 14.0999 19.082 14.1338 18.9281 14.1116C18.7172 14.0826 18.6185 13.9351 18.4479 13.837C18.407 13.8135 18.3635 13.8302 18.3412 13.8629C18.3356 13.8666 18.3294 13.8697 18.3251 13.8746C18.1787 14.0252 18.0248 14.1523 17.8002 14.1338C17.6029 14.1178 17.513 13.9764 17.3517 13.9024C17.3356 13.8536 17.2661 13.8215 17.2202 13.866C17.1296 13.9536 17.003 13.9993 16.8777 14.0011C16.7685 14.0036 16.663 13.9184 16.5594 13.9511C16.5266 13.9604 16.5067 13.9863 16.4999 14.0153C16.1922 14.1147 15.9415 14.1005 15.7045 13.9221C15.8181 13.9036 15.9254 13.8617 15.9992 13.8006C16.0482 13.7611 15.9943 13.6882 15.9415 13.7012C15.8044 13.7364 15.6648 13.7604 15.524 13.7339C15.3987 13.7104 15.2988 13.6277 15.1766 13.5994C15.1344 13.5901 15.0779 13.6296 15.0978 13.679C15.1425 13.7913 15.2374 13.8623 15.3521 13.8999C15.2324 13.9913 15.0668 14.0073 14.9204 13.9697C14.7597 13.9289 14.6437 13.8049 14.4861 13.7629C14.4358 13.7487 14.3992 13.7876 14.3967 13.832C14.3955 13.8333 14.3943 13.8333 14.393 13.8345C14.2367 13.9592 14.0022 14.0227 13.8086 13.9653C13.6597 13.9221 13.5741 13.8018 13.445 13.7388C13.4277 13.7074 13.3923 13.6851 13.3557 13.6981C12.8979 13.8697 12.4357 13.566 12.5566 13.0606C12.5697 13.0094 12.5486 12.9705 12.5169 12.9495C12.5132 12.9427 12.5101 12.9365 12.5039 12.931C12.3525 12.7607 12.2129 12.5841 12.1943 12.3484C12.1745 12.0904 12.3103 11.9201 12.4127 11.7004C12.414 11.6992 12.414 11.6979 12.414 11.6967C12.4444 11.6813 12.4667 11.6479 12.4586 11.601C12.4189 11.3967 12.4642 11.169 12.6193 11.0209C12.6851 10.958 12.767 10.9086 12.8538 10.8833C12.9357 10.8586 13.0207 10.866 13.1014 10.8351C13.138 10.8209 13.1634 10.7827 13.1659 10.745C13.3526 10.7382 13.5096 10.8068 13.6355 10.9456C13.6696 10.9839 13.7385 10.9833 13.7739 10.9456C13.9898 10.7166 14.2782 10.7228 14.5041 10.9339C14.545 10.9734 14.5946 10.9678 14.6275 10.9407C14.6418 10.9394 14.6548 10.9339 14.6654 10.9246C14.7907 10.808 14.9222 10.7031 15.1052 10.7166C15.2188 10.7259 15.2932 10.7926 15.3763 10.8438C15.3224 10.8623 15.2734 10.8833 15.2318 10.9055C15.1449 10.9512 15.2212 11.0758 15.3069 11.0351C15.4384 10.9721 15.578 10.9438 15.7231 10.9512C15.8454 10.958 15.9564 11.0258 16.0761 11.0191C16.1171 11.0178 16.158 10.9678 16.1289 10.9277C16.0551 10.8284 15.9353 10.7852 15.8038 10.7771C16.1394 10.5297 16.5594 10.5519 16.8597 10.8882C16.9255 10.9617 17.0167 10.9067 17.0334 10.8321C17.124 10.7759 17.2121 10.7302 17.3281 10.7352C17.4665 10.7401 17.5477 10.8345 17.6718 10.8648C17.6774 10.8672 17.6836 10.8672 17.6892 10.8672C17.7103 10.8777 17.7338 10.8802 17.7587 10.8635C18.1259 10.6148 18.4957 10.6568 18.8431 10.9092C18.8549 10.9172 18.8679 10.9234 18.881 10.9252C18.9083 10.9604 18.9622 10.9765 19.0057 10.9394C19.082 10.8753 19.1849 10.8463 19.2848 10.8493C19.3835 10.853 19.4523 10.903 19.5429 10.9308C19.605 10.9505 19.6459 10.9123 19.6565 10.8629C19.8289 10.7636 20.0169 10.6679 20.1987 10.6259C20.445 10.5685 20.6807 10.6086 20.8526 10.8641C20.7738 10.8746 20.6987 10.8932 20.6379 10.9154C20.5535 10.9456 20.5864 11.0752 20.6758 11.0505C20.8048 11.0141 20.9295 11.0098 21.0604 11.0413C21.1721 11.0684 21.2645 11.1437 21.3749 11.1641C21.4395 11.1758 21.504 11.1104 21.4643 11.0487C21.4091 10.961 21.3179 10.9086 21.213 10.8808C21.347 10.7814 21.5145 10.7395 21.6845 10.7907C21.9228 10.8629 21.9532 11.0474 22.0797 11.2215C22.0971 11.2462 22.13 11.2597 22.161 11.2597C22.1808 11.2678 22.2032 11.269 22.2255 11.2573C22.4259 11.1524 22.6834 11.1554 22.8428 11.3332C22.9917 11.4992 22.9154 11.6621 22.9483 11.8516C22.952 11.8701 22.9613 11.8843 22.9743 11.896C22.9756 11.9195 22.9861 11.9442 23.0122 11.959C23.1555 12.0441 23.2678 12.1842 23.2479 12.3595C23.2318 12.5064 23.1034 12.5743 23.0661 12.7051V12.707Z" fill="white"/>
<path d="M22.2621 11.0567C22.2528 11.0616 22.2423 11.0647 22.233 11.0697C22.1908 10.8456 21.9476 10.6519 21.7391 10.5957C21.4903 10.529 21.2416 10.6179 21.0641 10.7895C20.9959 10.5667 20.7719 10.4161 20.5393 10.3809C20.3798 10.3562 20.226 10.3809 20.0814 10.4346C19.8997 10.4988 19.7303 10.6087 19.5758 10.7204C19.484 10.6599 19.3518 10.6445 19.2507 10.6525C19.1465 10.6605 19.0547 10.6969 18.974 10.7543C18.9728 10.7531 18.9703 10.7506 18.9691 10.7488C18.6371 10.4019 18.0949 10.4019 17.7345 10.6858C17.6451 10.5729 17.4658 10.5247 17.3287 10.5272C17.196 10.5284 17.0508 10.5821 16.9509 10.6765C16.5663 10.2902 15.9136 10.3167 15.5836 10.7685C15.524 10.5877 15.2529 10.5037 15.0779 10.5081C14.8869 10.5118 14.7038 10.6013 14.5959 10.7543C14.3378 10.5118 13.9625 10.5198 13.7007 10.7463C13.5425 10.6259 13.365 10.5864 13.1622 10.6216V10.6191C13.3135 9.40768 13.548 8.20177 13.8744 7.02363C14.1653 5.97324 14.5512 4.92346 15.2107 4.04094C15.8665 3.16335 16.7865 2.46843 17.8896 2.28267C19.0081 2.09568 20.0653 2.52768 20.7918 3.37997C21.6529 4.39086 21.9054 5.72514 22.0332 7.00696C21.9321 6.92982 21.7776 6.91501 21.6597 6.94957C21.5567 6.97981 21.4705 7.04091 21.4041 7.11743C21.3433 7.18532 21.2962 7.26678 21.262 7.35319C21.1448 7.31492 21.0275 7.32541 20.9264 7.36738C20.5839 6.14727 19.8351 4.98703 18.9548 4.08846C18.9021 4.03476 18.827 4.11314 18.8735 4.1693C19.0627 4.39827 19.2358 4.63155 19.399 4.86854C19.1974 4.71918 18.9697 4.59082 18.7643 4.46122C18.7184 4.43344 18.6632 4.50071 18.7054 4.53589C18.9647 4.75066 19.2383 5.00986 19.5361 5.166C19.5572 5.17773 19.5795 5.17649 19.5969 5.16847C20.0603 5.89362 20.4245 6.66012 20.7527 7.48587C20.7527 7.48587 20.7539 7.48711 20.7539 7.48834C20.6683 7.57968 20.6143 7.70064 20.6168 7.83271C20.306 7.98577 20.1968 8.44431 20.4419 8.70104C20.3259 8.82139 20.3023 9.03492 20.3364 9.19044C20.3718 9.35152 20.4667 9.47865 20.6026 9.56197C20.5535 9.66442 20.6001 9.83722 20.659 9.91128C20.7291 10.0001 20.842 10.0372 20.9444 10.0014C20.9853 10.168 21.1566 10.305 21.3142 10.3495C21.504 10.4044 21.7286 10.3624 21.862 10.2149C21.8818 10.2174 21.9017 10.2186 21.9228 10.2186C21.9252 10.2291 21.9277 10.2396 21.9358 10.2501C22.0053 10.3482 22.099 10.4056 22.2001 10.4284C22.2106 10.6395 22.2385 10.8475 22.2609 11.0579L22.2621 11.0567Z" fill="#F72E2E"/>
<path d="M23.5879 8.79977C23.5891 8.93308 23.5066 8.97257 23.4316 9.05219C23.3881 9.05219 23.3459 9.09292 23.359 9.14352C23.4074 9.32558 23.4483 9.49839 23.3366 9.66872C23.2312 9.82856 23.0587 9.86004 22.8813 9.87793C22.8577 9.88164 22.8391 9.8909 22.8236 9.90386C22.7988 9.89892 22.7733 9.90632 22.7591 9.9378C22.697 10.0674 22.5971 10.184 22.4538 10.226C22.3328 10.2612 22.2299 10.2248 22.125 10.1773C22.1976 10.1495 22.2621 10.1075 22.308 10.0544C22.3539 10.002 22.2925 9.90386 22.2268 9.95076C22.1455 10.0069 22.0462 10.0501 21.9451 10.0452C21.8396 10.0396 21.7646 9.97421 21.6715 9.93224C21.6095 9.90447 21.5555 9.96002 21.5809 10.0223C21.6008 10.0668 21.6281 10.1032 21.661 10.131C21.5598 10.1674 21.4581 10.1834 21.3464 10.1439C21.2031 10.0927 21.1411 9.98162 21.0424 9.87793C21.0344 9.86991 21.0238 9.86374 21.0133 9.86189C20.9978 9.84584 20.9754 9.8372 20.9475 9.84769C20.883 9.87361 20.816 9.81745 20.7949 9.75759C20.7676 9.68415 20.8017 9.60207 20.7645 9.53603C20.7657 9.51135 20.7577 9.48604 20.7316 9.4663C20.6286 9.38792 20.5424 9.27004 20.5169 9.14167C20.4865 8.99356 20.5554 8.8837 20.5982 8.74731C20.6088 8.71214 20.5945 8.68683 20.5722 8.67017C20.5734 8.65721 20.5722 8.64302 20.5666 8.63067C20.4413 8.35727 20.4928 8.14621 20.7378 7.97094C20.78 7.94193 20.785 7.88454 20.7639 7.84627C20.8036 7.63151 20.9915 7.4982 21.2155 7.53955C21.2639 7.54881 21.2999 7.52659 21.3185 7.49511C21.329 7.49018 21.3396 7.48462 21.3477 7.47413L21.3687 7.44636C21.4389 7.34947 21.5083 7.24332 21.6095 7.17543C21.7658 7.06928 21.8756 7.11804 21.9978 7.23283C22.0307 7.26307 22.0717 7.25875 22.1002 7.23653C22.3477 7.23406 22.6362 7.17358 22.7069 7.48277C22.7119 7.50252 22.7212 7.51671 22.733 7.52721C22.7318 7.55745 22.7578 7.58892 22.7919 7.59262C22.9377 7.60682 23.0786 7.6241 23.1909 7.70124C23.2343 7.73025 23.274 7.76913 23.3081 7.82035C23.3565 7.89379 23.3832 7.9839 23.3844 8.07153C23.3857 8.13942 23.3646 8.20114 23.3528 8.26408C23.3149 8.22335 23.2709 8.18941 23.22 8.16164C23.1648 8.1314 23.1003 8.20607 23.1505 8.25174C23.2163 8.31222 23.2622 8.38813 23.2864 8.4733C23.31 8.556 23.2876 8.63561 23.3007 8.71707C23.3112 8.79051 23.4111 8.78619 23.4452 8.73559C23.4849 8.67819 23.4874 8.60105 23.4756 8.52761C23.5352 8.61031 23.586 8.70535 23.5873 8.80286L23.5879 8.79977Z" fill="white"/>
<path d="M23.5271 8.34987C23.6673 8.16472 23.5774 7.83085 23.4477 7.66915C23.3249 7.5161 23.1003 7.40933 22.8986 7.43772C22.8999 7.12483 22.5705 7.023 22.2931 7.05694C22.1449 4.91789 21.2292 2.22156 18.7041 2.01358C16.2263 1.8093 14.599 4.06684 13.8979 6.13985C13.4122 7.57658 13.0983 9.1065 13.0095 10.6198C13.0095 10.6278 13.0108 10.6339 13.0126 10.6407C12.8104 10.6154 12.5728 10.7469 12.445 10.8839C12.2651 11.0764 12.2049 11.3418 12.2731 11.5905C11.7874 11.8997 11.9052 12.7323 12.3426 13.0347C12.1298 13.6327 12.8185 14.2023 13.3495 13.8876C13.4171 14.0622 13.6541 14.1752 13.8229 14.2042C14.0834 14.2486 14.3043 14.1573 14.4693 13.9666C14.6033 14.1196 14.8534 14.2073 15.042 14.2085C15.2157 14.2091 15.3714 14.1418 15.4862 14.0233C15.7455 14.3375 16.2548 14.4288 16.5824 14.1721C16.681 14.2319 16.8411 14.2363 16.9335 14.2251C17.062 14.2097 17.1718 14.1517 17.2586 14.0653C17.3442 14.2579 17.6216 14.3615 17.8176 14.3659C18.0465 14.3708 18.2693 14.2628 18.3964 14.0795C18.518 14.2412 18.7625 14.3338 18.9461 14.348C19.1812 14.3659 19.3791 14.2714 19.5361 14.1178C19.752 14.4862 20.3867 14.4628 20.6813 14.1813C20.7626 14.3202 20.986 14.3794 21.1311 14.3646C21.3036 14.3473 21.4506 14.2424 21.5195 14.0894C21.6876 14.2307 21.9643 14.2418 22.1598 14.1616C22.367 14.0764 22.4954 13.9061 22.5432 13.6975C22.5543 13.6895 22.5649 13.6814 22.5748 13.6734C22.5804 13.6944 22.5928 13.7129 22.6151 13.724C22.8471 13.832 23.1363 13.6821 23.2752 13.4889C23.4371 13.2642 23.4173 12.9822 23.3038 12.7434C23.4179 12.6409 23.4731 12.4354 23.4663 12.3077C23.4551 12.1021 23.3323 11.9244 23.1499 11.8399C23.2789 11.6269 23.1183 11.2715 22.9483 11.1326C22.795 11.0073 22.5984 10.9666 22.4154 11.0049C22.4166 10.8142 22.4203 10.6253 22.4104 10.4346C22.612 10.3994 22.8031 10.2587 22.8682 10.0606C23.336 10.1921 23.7759 9.60207 23.5687 9.19598C23.6853 9.15155 23.7653 8.99479 23.7815 8.88062C23.8125 8.66215 23.6853 8.48564 23.5271 8.35234V8.34987ZM13.1622 10.6191C13.3135 9.40705 13.548 8.20114 13.8744 7.02361C14.1653 5.9726 14.5506 4.92283 15.2107 4.04092C15.8671 3.16333 16.7865 2.4678 17.8902 2.28266C19.0088 2.09504 20.0659 2.52705 20.7918 3.37934C21.6529 4.39023 21.9054 5.72451 22.0332 7.00633C21.9321 6.92981 21.777 6.91376 21.6603 6.94894C21.4649 7.00757 21.3352 7.17173 21.2633 7.35317C21.1448 7.31491 21.0281 7.32478 20.927 7.36798C20.5846 6.14788 19.8357 4.98763 18.9554 4.08844C18.9027 4.03475 18.8282 4.11374 18.8741 4.16929C19.0627 4.39825 19.2371 4.63153 19.4002 4.86852C19.198 4.71917 18.9709 4.59019 18.7656 4.4612C18.7203 4.43281 18.6651 4.50132 18.7072 4.53649C18.966 4.75064 19.2395 5.01047 19.5386 5.1666C19.5597 5.17771 19.5814 5.17648 19.5994 5.16846C20.0622 5.89423 20.4264 6.66011 20.7552 7.48586C20.7552 7.48648 20.7558 7.48709 20.7564 7.48771C20.6702 7.57905 20.6168 7.70124 20.6187 7.8327C20.3079 7.98513 20.1987 8.44368 20.4437 8.70041C20.3283 8.82137 20.3035 9.03491 20.3376 9.18981C20.373 9.35089 20.4679 9.4774 20.6038 9.56134C20.5554 9.66378 20.6019 9.83597 20.6609 9.91003C20.731 9.99828 20.8433 10.0365 20.9456 10.0001C20.9872 10.1661 21.1578 10.3032 21.3154 10.3482C21.5059 10.4025 21.7298 10.3605 21.8626 10.2137C21.8831 10.2161 21.9035 10.2174 21.924 10.2174C21.9259 10.2279 21.929 10.2384 21.937 10.2495C22.0065 10.3476 22.1002 10.4037 22.2007 10.4278C22.2112 10.6389 22.2398 10.8462 22.2621 11.0567C22.2522 11.0616 22.2416 11.0653 22.2323 11.0703C22.1895 10.8456 21.9463 10.6512 21.7385 10.5963C21.4897 10.5303 21.2409 10.6191 21.0635 10.7901C20.9953 10.5673 20.7713 10.4167 20.538 10.3809C20.1776 10.3254 19.855 10.5192 19.5752 10.721C19.4834 10.6605 19.3512 10.6444 19.2501 10.6525C19.1465 10.6605 19.0547 10.6975 18.9734 10.7549C18.9715 10.7524 18.9703 10.7506 18.9684 10.7481C18.6365 10.4019 18.0949 10.4013 17.7345 10.6852C17.6451 10.5722 17.4652 10.5241 17.3287 10.5259C17.1953 10.5278 17.0502 10.5809 16.9509 10.6753C16.5656 10.2896 15.9136 10.3155 15.5836 10.7685C15.5234 10.5877 15.2523 10.5037 15.0779 10.5074C14.8869 10.5118 14.7026 10.6006 14.5953 10.7537C14.3372 10.5111 13.9618 10.5192 13.7 10.7463C13.5418 10.6259 13.3644 10.5864 13.1609 10.621C13.1609 10.6204 13.1609 10.6198 13.1615 10.6191H13.1622ZM22.8434 11.3356C22.9929 11.5023 22.916 11.6652 22.9495 11.8534C22.9526 11.872 22.9619 11.8868 22.9743 11.8979C22.9762 11.9219 22.9867 11.946 23.0122 11.9608C23.1561 12.0466 23.2684 12.1861 23.2485 12.362C23.2318 12.5095 23.104 12.5761 23.0661 12.7076C23.0531 12.7532 23.0854 12.7934 23.1282 12.802C23.1691 12.9804 23.2181 13.1569 23.1133 13.3278C23.0109 13.4951 22.8651 13.5074 22.7026 13.542C22.769 13.4568 22.8167 13.3593 22.8447 13.2525C22.8664 13.168 22.7435 13.1365 22.715 13.2167C22.6703 13.3414 22.586 13.4519 22.4799 13.5315C22.4786 13.5321 22.4774 13.5327 22.4762 13.5339C22.4569 13.5346 22.4395 13.5444 22.4284 13.5636C22.3397 13.6111 22.241 13.629 22.1573 13.6827C22.107 13.7154 22.112 13.7981 22.1746 13.8135C22.2162 13.824 22.2596 13.8215 22.3037 13.8123C22.2447 13.8845 22.1678 13.9425 22.0797 13.9733C21.8843 14.0406 21.7379 13.9622 21.5617 13.8888C21.5176 13.8703 21.4848 13.89 21.4661 13.9221C21.4438 13.924 21.4215 13.9339 21.406 13.9561C21.334 14.0591 21.2242 14.148 21.092 14.1505C20.9562 14.1523 20.8954 14.056 20.7843 14.0085C20.7819 14.0073 20.7794 14.0073 20.7769 14.0067C20.7608 13.9672 20.7124 13.9413 20.6683 13.9666C20.494 14.0665 20.337 14.1715 20.1261 14.1628C20.0039 14.1579 19.9083 14.111 19.8122 14.0598C19.8947 14.0344 19.9698 13.9888 20.033 13.9221C20.0845 13.8672 20.0194 13.7783 19.9511 13.8166C19.8506 13.8734 19.7359 13.9048 19.6205 13.8956C19.6 13.8826 19.5752 13.8771 19.5522 13.8851C19.4325 13.8567 19.358 13.7666 19.2476 13.7265C19.1924 13.7067 19.1546 13.7648 19.162 13.8117C19.1775 13.9123 19.2668 13.9814 19.3667 14.0246C19.2358 14.0999 19.0832 14.1338 18.9294 14.1122C18.7184 14.0826 18.6198 13.9357 18.4504 13.8376C18.4088 13.8135 18.3654 13.8302 18.3425 13.8635C18.3369 13.8666 18.3307 13.8697 18.3263 13.8746C18.1799 14.0252 18.0267 14.1523 17.8021 14.1332C17.6048 14.1165 17.5142 13.9758 17.3529 13.9018C17.3374 13.853 17.2673 13.8221 17.2214 13.866C17.1308 13.953 17.0049 13.9993 16.8796 14.0017C16.7704 14.0036 16.6649 13.919 16.5613 13.9511C16.5278 13.961 16.5086 13.9863 16.5017 14.0159C16.1934 14.1147 15.9428 14.1011 15.7058 13.9227C15.8199 13.9036 15.926 13.8616 16.0005 13.8018C16.0489 13.7623 15.9961 13.6888 15.9421 13.7024C15.8057 13.737 15.6661 13.7617 15.5252 13.7351C15.3999 13.7117 15.3 13.6284 15.1778 13.6006C15.135 13.5907 15.0792 13.6308 15.0984 13.6796C15.1437 13.7919 15.2386 13.8629 15.3534 13.9005C15.2337 13.9919 15.068 14.0079 14.9216 13.9703C14.7609 13.9289 14.6449 13.8061 14.4879 13.7635C14.4364 13.7499 14.4005 13.7888 14.3986 13.8326C14.3974 13.8333 14.3961 13.8339 14.3949 13.8345C14.2385 13.9598 14.0034 14.0233 13.8098 13.9659C13.6616 13.9221 13.5753 13.8024 13.4457 13.7388C13.4283 13.7074 13.3936 13.6851 13.357 13.6987C12.8997 13.8703 12.4369 13.5666 12.5579 13.0612C12.5703 13.0087 12.5498 12.9705 12.5176 12.9495C12.5138 12.9433 12.5114 12.9365 12.5058 12.9304C12.3532 12.7606 12.2148 12.5841 12.1956 12.3484C12.1751 12.0904 12.3116 11.9201 12.414 11.7004C12.414 11.6991 12.414 11.6985 12.4146 11.6973C12.4456 11.6813 12.4679 11.6479 12.4586 11.6016C12.4195 11.3967 12.4654 11.169 12.6199 11.0209C12.6851 10.9579 12.7676 10.9092 12.8544 10.8827C12.9363 10.858 13.0219 10.8654 13.1014 10.8351C13.1386 10.8209 13.1634 10.7827 13.1659 10.7457C13.3532 10.7382 13.5102 10.8067 13.6349 10.9468C13.6696 10.9851 13.7391 10.9833 13.7739 10.9468C13.9904 10.7179 14.2789 10.724 14.5041 10.9351C14.5456 10.974 14.594 10.9684 14.6275 10.9419C14.6412 10.9394 14.6542 10.9345 14.6648 10.9252C14.7901 10.8086 14.9222 10.7031 15.1052 10.7173C15.2188 10.7259 15.2932 10.7926 15.3757 10.8438C15.3218 10.8629 15.2727 10.8839 15.2312 10.9061C15.1456 10.9518 15.2206 11.0764 15.3069 11.0351C15.4378 10.9721 15.578 10.9444 15.7238 10.9524C15.8454 10.9592 15.9577 11.0258 16.0762 11.0203C16.1177 11.0184 16.1593 10.9678 16.1295 10.9283C16.0551 10.8296 15.9359 10.787 15.8044 10.7784C16.1407 10.5309 16.5607 10.5537 16.8616 10.8894C16.9273 10.9629 17.0185 10.908 17.0347 10.8333C17.1246 10.7771 17.2127 10.7321 17.3294 10.7364C17.4677 10.7419 17.5477 10.8364 17.6731 10.8666C17.6793 10.8678 17.6848 10.8685 17.691 10.8685C17.7115 10.879 17.7357 10.8808 17.7593 10.8648C18.1266 10.616 18.4963 10.658 18.8437 10.9098C18.8561 10.9191 18.8692 10.9246 18.8816 10.9265C18.9083 10.961 18.9622 10.9777 19.0063 10.9407C19.0826 10.8765 19.1856 10.8475 19.2848 10.8506C19.3835 10.8537 19.4536 10.9043 19.5435 10.9326C19.6056 10.9524 19.6471 10.9129 19.6571 10.8641C20.0653 10.6284 20.556 10.4223 20.8538 10.866C20.7744 10.8765 20.7 10.8944 20.6385 10.9166C20.5542 10.9468 20.587 11.0777 20.6764 11.0524C20.8054 11.016 20.9301 11.0116 21.061 11.0431C21.1721 11.0703 21.2658 11.1449 21.3762 11.1653C21.4401 11.177 21.5052 11.1122 21.4655 11.0499C21.4103 10.9623 21.3185 10.9098 21.2136 10.882C21.3477 10.7827 21.5152 10.7413 21.6851 10.7926C21.9234 10.8641 21.9544 11.0493 22.0803 11.2227C22.0983 11.2474 22.1306 11.2616 22.161 11.261C22.1815 11.269 22.2038 11.2708 22.2261 11.2591C22.4265 11.1536 22.684 11.1573 22.8434 11.3344V11.3356ZM23.4328 9.0528C23.3888 9.0528 23.3466 9.09354 23.3596 9.14353C23.408 9.32559 23.4489 9.49839 23.3373 9.66872C23.2318 9.82918 23.0593 9.86004 22.8819 9.87855C22.8589 9.88102 22.8397 9.8909 22.8248 9.90447C22.8 9.89892 22.7746 9.90632 22.7597 9.9378C22.6983 10.0674 22.5978 10.184 22.4544 10.2254C22.3335 10.2606 22.2311 10.2242 22.1269 10.1773C22.1995 10.1489 22.264 10.1069 22.3093 10.0551C22.3552 10.002 22.2944 9.90447 22.2286 9.95076C22.148 10.0069 22.0481 10.0495 21.947 10.0446C21.8409 10.0396 21.7658 9.97359 21.6734 9.93224C21.6107 9.90386 21.5573 9.96063 21.5834 10.0217C21.6026 10.0668 21.6299 10.102 21.6628 10.131C21.5623 10.1661 21.4606 10.1828 21.3483 10.1433C21.2043 10.0921 21.1429 9.981 21.0449 9.87794C21.0362 9.86868 21.0257 9.86374 21.0145 9.86127C21.0002 9.84461 20.9779 9.83597 20.9494 9.84708C20.8848 9.87238 20.8185 9.81622 20.7974 9.75759C20.7707 9.68353 20.8036 9.60145 20.7657 9.5348C20.7676 9.51073 20.7589 9.48419 20.7335 9.46506C20.6299 9.38668 20.5442 9.26942 20.5182 9.14106C20.4884 8.99232 20.5573 8.88309 20.5988 8.74608C20.6094 8.7109 20.5957 8.68437 20.5728 8.66894C20.574 8.65598 20.5728 8.6424 20.5672 8.62821C20.4425 8.35542 20.4927 8.14436 20.739 7.9697C20.7812 7.94008 20.7856 7.88269 20.7645 7.84442C20.8042 7.62965 20.9915 7.49635 21.2167 7.5377C21.2651 7.54634 21.3011 7.52474 21.3197 7.49326C21.3303 7.48894 21.3402 7.48277 21.3483 7.4729C21.4277 7.3686 21.4996 7.24764 21.6107 7.17296C21.767 7.06743 21.8762 7.11618 21.9991 7.23036C22.0319 7.2606 22.0735 7.25628 22.1014 7.23406C22.3484 7.23159 22.6368 7.17049 22.7082 7.4803C22.7125 7.50005 22.7224 7.51363 22.7336 7.52474C22.733 7.55498 22.7584 7.58707 22.7926 7.59016C22.9942 7.60991 23.1853 7.63397 23.3081 7.81789C23.3571 7.89133 23.3838 7.98081 23.385 8.06907C23.3857 8.13634 23.3652 8.19805 23.3534 8.26162C23.3155 8.22089 23.2709 8.18632 23.2206 8.15917C23.1654 8.12893 23.1015 8.20361 23.1511 8.24866C23.2175 8.30852 23.2634 8.38505 23.2876 8.47083C23.3112 8.55353 23.2889 8.63253 23.3013 8.71461C23.3124 8.78743 23.4117 8.78311 23.4458 8.73312C23.4849 8.67573 23.488 8.59858 23.4756 8.52452C23.5358 8.60784 23.586 8.70288 23.5873 8.79977C23.5885 8.93369 23.506 8.97319 23.4316 9.05219L23.4328 9.0528Z" fill="#041110"/>
<path d="M23.5271 8.34987C23.6673 8.16472 23.5774 7.83085 23.4477 7.66915C23.3249 7.5161 23.1003 7.40933 22.8986 7.43772C22.8999 7.12483 22.5705 7.023 22.2931 7.05694C22.1449 4.91789 21.2292 2.22156 18.7041 2.01358C16.2263 1.8093 14.599 4.06684 13.8979 6.13985C13.4122 7.57658 13.0983 9.1065 13.0095 10.6198C13.0095 10.6278 13.0108 10.6339 13.0126 10.6407C12.8104 10.6154 12.5728 10.7469 12.445 10.8839C12.2651 11.0764 12.2049 11.3418 12.2731 11.5905C11.7874 11.8997 11.9052 12.7323 12.3426 13.0347C12.1298 13.6327 12.8185 14.2023 13.3495 13.8876C13.4171 14.0622 13.6541 14.1752 13.8229 14.2042C14.0834 14.2486 14.3043 14.1573 14.4693 13.9666C14.6033 14.1196 14.8534 14.2073 15.042 14.2085C15.2157 14.2091 15.3714 14.1418 15.4862 14.0233C15.7455 14.3375 16.2548 14.4288 16.5824 14.1721C16.681 14.2319 16.8411 14.2363 16.9335 14.2251C17.062 14.2097 17.1718 14.1517 17.2586 14.0653C17.3442 14.2579 17.6216 14.3615 17.8176 14.3659C18.0465 14.3708 18.2693 14.2628 18.3964 14.0795C18.518 14.2412 18.7625 14.3338 18.9461 14.348C19.1812 14.3659 19.3791 14.2714 19.5361 14.1178C19.752 14.4862 20.3867 14.4628 20.6813 14.1813C20.7626 14.3202 20.986 14.3794 21.1311 14.3646C21.3036 14.3473 21.4506 14.2424 21.5195 14.0894C21.6876 14.2307 21.9643 14.2418 22.1598 14.1616C22.367 14.0764 22.4954 13.9061 22.5432 13.6975C22.5543 13.6895 22.5649 13.6814 22.5748 13.6734C22.5804 13.6944 22.5928 13.7129 22.6151 13.724C22.8471 13.832 23.1363 13.6821 23.2752 13.4889C23.4371 13.2642 23.4173 12.9822 23.3038 12.7434C23.4179 12.6409 23.4731 12.4354 23.4663 12.3077C23.4551 12.1021 23.3323 11.9244 23.1499 11.8399C23.2789 11.6269 23.1183 11.2715 22.9483 11.1326C22.795 11.0073 22.5984 10.9666 22.4154 11.0049C22.4166 10.8142 22.4203 10.6253 22.4104 10.4346C22.612 10.3994 22.8031 10.2587 22.8682 10.0606C23.336 10.1921 23.7759 9.60207 23.5687 9.19598C23.6853 9.15155 23.7653 8.99479 23.7815 8.88062C23.8125 8.66215 23.6853 8.48564 23.5271 8.35234V8.34987ZM13.1622 10.6191C13.3135 9.40705 13.548 8.20114 13.8744 7.02361C14.1653 5.9726 14.5506 4.92283 15.2107 4.04092C15.8671 3.16333 16.7865 2.4678 17.8902 2.28266C19.0088 2.09504 20.0659 2.52705 20.7918 3.37934C21.6529 4.39023 21.9054 5.72451 22.0332 7.00633C21.9321 6.92981 21.777 6.91376 21.6603 6.94894C21.4649 7.00757 21.3352 7.17173 21.2633 7.35317C21.1448 7.31491 21.0281 7.32478 20.927 7.36798C20.5846 6.14788 19.8357 4.98763 18.9554 4.08844C18.9027 4.03475 18.8282 4.11374 18.8741 4.16929C19.0627 4.39825 19.2371 4.63153 19.4002 4.86852C19.198 4.71917 18.9709 4.59019 18.7656 4.4612C18.7203 4.43281 18.6651 4.50132 18.7072 4.53649C18.966 4.75064 19.2395 5.01047 19.5386 5.1666C19.5597 5.17771 19.5814 5.17648 19.5994 5.16846C20.0622 5.89423 20.4264 6.66011 20.7552 7.48586C20.7552 7.48648 20.7558 7.48709 20.7564 7.48771C20.6702 7.57905 20.6168 7.70124 20.6187 7.8327C20.3079 7.98513 20.1987 8.44368 20.4437 8.70041C20.3283 8.82137 20.3035 9.03491 20.3376 9.18981C20.373 9.35089 20.4679 9.4774 20.6038 9.56134C20.5554 9.66378 20.6019 9.83597 20.6609 9.91003C20.731 9.99828 20.8433 10.0365 20.9456 10.0001C20.9872 10.1661 21.1578 10.3032 21.3154 10.3482C21.5059 10.4025 21.7298 10.3605 21.8626 10.2137C21.8831 10.2161 21.9035 10.2174 21.924 10.2174C21.9259 10.2279 21.929 10.2384 21.937 10.2495C22.0065 10.3476 22.1002 10.4037 22.2007 10.4278C22.2112 10.6389 22.2398 10.8462 22.2621 11.0567C22.2522 11.0616 22.2416 11.0653 22.2323 11.0703C22.1895 10.8456 21.9463 10.6512 21.7385 10.5963C21.4897 10.5303 21.2409 10.6191 21.0635 10.7901C20.9953 10.5673 20.7713 10.4167 20.538 10.3809C20.1776 10.3254 19.855 10.5192 19.5752 10.721C19.4834 10.6605 19.3512 10.6444 19.2501 10.6525C19.1465 10.6605 19.0547 10.6975 18.9734 10.7549C18.9715 10.7524 18.9703 10.7506 18.9684 10.7481C18.6365 10.4019 18.0949 10.4013 17.7345 10.6852C17.6451 10.5722 17.4652 10.5241 17.3287 10.5259C17.1953 10.5278 17.0502 10.5809 16.9509 10.6753C16.5656 10.2896 15.9136 10.3155 15.5836 10.7685C15.5234 10.5877 15.2523 10.5037 15.0779 10.5074C14.8869 10.5118 14.7026 10.6006 14.5953 10.7537C14.3372 10.5111 13.9618 10.5192 13.7 10.7463C13.5418 10.6259 13.3644 10.5864 13.1609 10.621C13.1609 10.6204 13.1609 10.6198 13.1615 10.6191H13.1622ZM22.8434 11.3356C22.9929 11.5023 22.916 11.6652 22.9495 11.8534C22.9526 11.872 22.9619 11.8868 22.9743 11.8979C22.9762 11.9219 22.9867 11.946 23.0122 11.9608C23.1561 12.0466 23.2684 12.1861 23.2485 12.362C23.2318 12.5095 23.104 12.5761 23.0661 12.7076C23.0531 12.7532 23.0854 12.7934 23.1282 12.802C23.1691 12.9804 23.2181 13.1569 23.1133 13.3278C23.0109 13.4951 22.8651 13.5074 22.7026 13.542C22.769 13.4568 22.8167 13.3593 22.8447 13.2525C22.8664 13.168 22.7435 13.1365 22.715 13.2167C22.6703 13.3414 22.586 13.4519 22.4799 13.5315C22.4786 13.5321 22.4774 13.5327 22.4762 13.5339C22.4569 13.5346 22.4395 13.5444 22.4284 13.5636C22.3397 13.6111 22.241 13.629 22.1573 13.6827C22.107 13.7154 22.112 13.7981 22.1746 13.8135C22.2162 13.824 22.2596 13.8215 22.3037 13.8123C22.2447 13.8845 22.1678 13.9425 22.0797 13.9733C21.8843 14.0406 21.7379 13.9622 21.5617 13.8888C21.5176 13.8703 21.4848 13.89 21.4661 13.9221C21.4438 13.924 21.4215 13.9339 21.406 13.9561C21.334 14.0591 21.2242 14.148 21.092 14.1505C20.9562 14.1523 20.8954 14.056 20.7843 14.0085C20.7819 14.0073 20.7794 14.0073 20.7769 14.0067C20.7608 13.9672 20.7124 13.9413 20.6683 13.9666C20.494 14.0665 20.337 14.1715 20.1261 14.1628C20.0039 14.1579 19.9083 14.111 19.8122 14.0598C19.8947 14.0344 19.9698 13.9888 20.033 13.9221C20.0845 13.8672 20.0194 13.7783 19.9511 13.8166C19.8506 13.8734 19.7359 13.9048 19.6205 13.8956C19.6 13.8826 19.5752 13.8771 19.5522 13.8851C19.4325 13.8567 19.358 13.7666 19.2476 13.7265C19.1924 13.7067 19.1546 13.7648 19.162 13.8117C19.1775 13.9123 19.2668 13.9814 19.3667 14.0246C19.2358 14.0999 19.0832 14.1338 18.9294 14.1122C18.7184 14.0826 18.6198 13.9357 18.4504 13.8376C18.4088 13.8135 18.3654 13.8302 18.3425 13.8635C18.3369 13.8666 18.3307 13.8697 18.3263 13.8746C18.1799 14.0252 18.0267 14.1523 17.8021 14.1332C17.6048 14.1165 17.5142 13.9758 17.3529 13.9018C17.3374 13.853 17.2673 13.8221 17.2214 13.866C17.1308 13.953 17.0049 13.9993 16.8796 14.0017C16.7704 14.0036 16.6649 13.919 16.5613 13.9511C16.5278 13.961 16.5086 13.9863 16.5017 14.0159C16.1934 14.1147 15.9428 14.1011 15.7058 13.9227C15.8199 13.9036 15.926 13.8616 16.0005 13.8018C16.0489 13.7623 15.9961 13.6888 15.9421 13.7024C15.8057 13.737 15.6661 13.7617 15.5252 13.7351C15.3999 13.7117 15.3 13.6284 15.1778 13.6006C15.135 13.5907 15.0792 13.6308 15.0984 13.6796C15.1437 13.7919 15.2386 13.8629 15.3534 13.9005C15.2337 13.9919 15.068 14.0079 14.9216 13.9703C14.7609 13.9289 14.6449 13.8061 14.4879 13.7635C14.4364 13.7499 14.4005 13.7888 14.3986 13.8326C14.3974 13.8333 14.3961 13.8339 14.3949 13.8345C14.2385 13.9598 14.0034 14.0233 13.8098 13.9659C13.6616 13.9221 13.5753 13.8024 13.4457 13.7388C13.4283 13.7074 13.3936 13.6851 13.357 13.6987C12.8997 13.8703 12.4369 13.5666 12.5579 13.0612C12.5703 13.0087 12.5498 12.9705 12.5176 12.9495C12.5138 12.9433 12.5114 12.9365 12.5058 12.9304C12.3532 12.7606 12.2148 12.5841 12.1956 12.3484C12.1751 12.0904 12.3116 11.9201 12.414 11.7004C12.414 11.6991 12.414 11.6985 12.4146 11.6973C12.4456 11.6813 12.4679 11.6479 12.4586 11.6016C12.4195 11.3967 12.4654 11.169 12.6199 11.0209C12.6851 10.9579 12.7676 10.9092 12.8544 10.8827C12.9363 10.858 13.0219 10.8654 13.1014 10.8351C13.1386 10.8209 13.1634 10.7827 13.1659 10.7457C13.3532 10.7382 13.5102 10.8067 13.6349 10.9468C13.6696 10.9851 13.7391 10.9833 13.7739 10.9468C13.9904 10.7179 14.2789 10.724 14.5041 10.9351C14.5456 10.974 14.594 10.9684 14.6275 10.9419C14.6412 10.9394 14.6542 10.9345 14.6648 10.9252C14.7901 10.8086 14.9222 10.7031 15.1052 10.7173C15.2188 10.7259 15.2932 10.7926 15.3757 10.8438C15.3218 10.8629 15.2727 10.8839 15.2312 10.9061C15.1456 10.9518 15.2206 11.0764 15.3069 11.0351C15.4378 10.9721 15.578 10.9444 15.7238 10.9524C15.8454 10.9592 15.9577 11.0258 16.0762 11.0203C16.1177 11.0184 16.1593 10.9678 16.1295 10.9283C16.0551 10.8296 15.9359 10.787 15.8044 10.7784C16.1407 10.5309 16.5607 10.5537 16.8616 10.8894C16.9273 10.9629 17.0185 10.908 17.0347 10.8333C17.1246 10.7771 17.2127 10.7321 17.3294 10.7364C17.4677 10.7419 17.5477 10.8364 17.6731 10.8666C17.6793 10.8678 17.6848 10.8685 17.691 10.8685C17.7115 10.879 17.7357 10.8808 17.7593 10.8648C18.1266 10.616 18.4963 10.658 18.8437 10.9098C18.8561 10.9191 18.8692 10.9246 18.8816 10.9265C18.9083 10.961 18.9622 10.9777 19.0063 10.9407C19.0826 10.8765 19.1856 10.8475 19.2848 10.8506C19.3835 10.8537 19.4536 10.9043 19.5435 10.9326C19.6056 10.9524 19.6471 10.9129 19.6571 10.8641C20.0653 10.6284 20.556 10.4223 20.8538 10.866C20.7744 10.8765 20.7 10.8944 20.6385 10.9166C20.5542 10.9468 20.587 11.0777 20.6764 11.0524C20.8054 11.016 20.9301 11.0116 21.061 11.0431C21.1721 11.0703 21.2658 11.1449 21.3762 11.1653C21.4401 11.177 21.5052 11.1122 21.4655 11.0499C21.4103 10.9623 21.3185 10.9098 21.2136 10.882C21.3477 10.7827 21.5152 10.7413 21.6851 10.7926C21.9234 10.8641 21.9544 11.0493 22.0803 11.2227C22.0983 11.2474 22.1306 11.2616 22.161 11.261C22.1815 11.269 22.2038 11.2708 22.2261 11.2591C22.4265 11.1536 22.684 11.1573 22.8434 11.3344V11.3356ZM23.4328 9.0528C23.3888 9.0528 23.3466 9.09354 23.3596 9.14353C23.408 9.32559 23.4489 9.49839 23.3373 9.66872C23.2318 9.82918 23.0593 9.86004 22.8819 9.87855C22.8589 9.88102 22.8397 9.8909 22.8248 9.90447C22.8 9.89892 22.7746 9.90632 22.7597 9.9378C22.6983 10.0674 22.5978 10.184 22.4544 10.2254C22.3335 10.2606 22.2311 10.2242 22.1269 10.1773C22.1995 10.1489 22.264 10.1069 22.3093 10.0551C22.3552 10.002 22.2944 9.90447 22.2286 9.95076C22.148 10.0069 22.0481 10.0495 21.947 10.0446C21.8409 10.0396 21.7658 9.97359 21.6734 9.93224C21.6107 9.90386 21.5573 9.96063 21.5834 10.0217C21.6026 10.0668 21.6299 10.102 21.6628 10.131C21.5623 10.1661 21.4606 10.1828 21.3483 10.1433C21.2043 10.0921 21.1429 9.981 21.0449 9.87794C21.0362 9.86868 21.0257 9.86374 21.0145 9.86127C21.0002 9.84461 20.9779 9.83597 20.9494 9.84708C20.8848 9.87238 20.8185 9.81622 20.7974 9.75759C20.7707 9.68353 20.8036 9.60145 20.7657 9.5348C20.7676 9.51073 20.7589 9.48419 20.7335 9.46506C20.6299 9.38668 20.5442 9.26942 20.5182 9.14106C20.4884 8.99232 20.5573 8.88309 20.5988 8.74608C20.6094 8.7109 20.5957 8.68437 20.5728 8.66894C20.574 8.65598 20.5728 8.6424 20.5672 8.62821C20.4425 8.35542 20.4927 8.14436 20.739 7.9697C20.7812 7.94008 20.7856 7.88269 20.7645 7.84442C20.8042 7.62965 20.9915 7.49635 21.2167 7.5377C21.2651 7.54634 21.3011 7.52474 21.3197 7.49326C21.3303 7.48894 21.3402 7.48277 21.3483 7.4729C21.4277 7.3686 21.4996 7.24764 21.6107 7.17296C21.767 7.06743 21.8762 7.11618 21.9991 7.23036C22.0319 7.2606 22.0735 7.25628 22.1014 7.23406C22.3484 7.23159 22.6368 7.17049 22.7082 7.4803C22.7125 7.50005 22.7224 7.51363 22.7336 7.52474C22.733 7.55498 22.7584 7.58707 22.7926 7.59016C22.9942 7.60991 23.1853 7.63397 23.3081 7.81789C23.3571 7.89133 23.3838 7.98081 23.385 8.06907C23.3857 8.13634 23.3652 8.19805 23.3534 8.26162C23.3155 8.22089 23.2709 8.18632 23.2206 8.15917C23.1654 8.12893 23.1015 8.20361 23.1511 8.24866C23.2175 8.30852 23.2634 8.38505 23.2876 8.47083C23.3112 8.55353 23.2889 8.63253 23.3013 8.71461C23.3124 8.78743 23.4117 8.78311 23.4458 8.73312C23.4849 8.67573 23.488 8.59858 23.4756 8.52452C23.5358 8.60784 23.586 8.70288 23.5873 8.79977C23.5885 8.93369 23.506 8.97319 23.4316 9.05219L23.4328 9.0528Z" fill="#041110"/>
<path d="M20.0814 10.434C20.1838 9.36322 19.9245 8.27457 19.4796 7.29391C19.0702 6.39164 18.4281 5.53688 18.425 4.54697C18.4225 4.20631 18.5435 3.81256 18.8636 3.69222C19.2073 3.56262 19.5721 3.81503 19.8308 4.07424C20.5616 4.80865 21.0889 5.74239 21.3402 6.74527C21.3706 6.86684 21.3979 6.99151 21.4047 7.11741C21.3439 7.18529 21.2968 7.26676 21.2627 7.35316C21.1454 7.3149 21.0281 7.32539 20.927 7.36735C20.5846 6.14725 19.8357 4.987 18.9554 4.08843C18.9027 4.03474 18.8276 4.11312 18.8741 4.16928C19.0634 4.39824 19.2364 4.63152 19.3996 4.86851C19.198 4.71916 18.9703 4.59079 18.7649 4.46119C18.719 4.43342 18.6638 4.50069 18.706 4.53586C18.9653 4.75063 19.2389 5.00984 19.5367 5.16598C19.5578 5.1777 19.5801 5.17647 19.5975 5.16844C20.0609 5.8936 20.4251 6.6601 20.7533 7.48585C20.7533 7.48585 20.7545 7.48708 20.7545 7.48832C20.6689 7.57965 20.615 7.70062 20.6174 7.83269C20.3066 7.98574 20.1974 8.44428 20.4425 8.70102C20.3265 8.82136 20.3029 9.0349 20.337 9.19042C20.3724 9.35149 20.4673 9.47863 20.6032 9.56194C20.5542 9.66439 20.6007 9.83719 20.6596 9.91125C20.7297 10.0001 20.8426 10.0371 20.945 10.0014C20.986 10.168 21.1572 10.305 21.3148 10.3494C21.5046 10.4044 21.7292 10.3624 21.8626 10.2149C21.8824 10.2174 21.9023 10.2186 21.9234 10.2186C21.9259 10.2291 21.9283 10.2396 21.9364 10.2501C22.0059 10.3482 22.0996 10.4056 22.2007 10.4284C22.2112 10.6395 22.2392 10.8475 22.2615 11.0579C22.2522 11.0629 22.2416 11.0659 22.2323 11.0709C22.1901 10.8469 21.9469 10.6531 21.7385 10.5969C21.4897 10.5303 21.2409 10.6191 21.0635 10.7907C20.9953 10.5679 20.7713 10.4173 20.5387 10.3821C20.3792 10.3575 20.2254 10.3821 20.0808 10.4358L20.0814 10.434Z" fill="#C92043"/>
<path d="M23.2479 12.3613C23.2318 12.5082 23.1034 12.5761 23.0662 12.707C23.0531 12.7526 23.0848 12.7934 23.1282 12.8014C23.1679 12.9797 23.2175 13.1562 23.1127 13.3278C23.0097 13.4944 22.8639 13.5074 22.702 13.5413C22.7677 13.4562 22.8155 13.3593 22.8428 13.2519C22.8651 13.168 22.7417 13.1353 22.7138 13.2155C22.6691 13.3402 22.5847 13.4512 22.478 13.5309C22.4768 13.5321 22.4755 13.5321 22.4743 13.5333C22.4557 13.5346 22.4377 13.5438 22.4259 13.5636C22.3378 13.6105 22.2392 13.629 22.156 13.6827C22.1058 13.7154 22.1101 13.7968 22.1722 13.8135C22.2143 13.824 22.2578 13.8215 22.3012 13.8123C22.2423 13.8845 22.166 13.9431 22.0785 13.9733C21.8824 14.0412 21.736 13.9629 21.5598 13.8894C21.5164 13.8709 21.4823 13.8906 21.4649 13.9221C21.4426 13.9246 21.4202 13.9338 21.4054 13.9561C21.3328 14.0585 21.2223 14.1486 21.0908 14.1499C20.9549 14.1523 20.8935 14.0554 20.7831 14.0073C20.7806 14.0073 20.7781 14.0061 20.7763 14.0061C20.7601 13.9666 20.7105 13.9406 20.6671 13.9653C20.6634 13.9678 20.6603 13.969 20.6565 13.9709C20.8067 13.7617 20.8879 13.5025 20.8669 13.247C20.847 12.9939 20.7378 12.7557 20.6144 12.5323C20.579 12.4694 20.543 12.4052 20.5343 12.3336C20.5213 12.225 20.5777 12.1213 20.6187 12.0182C20.811 11.5325 20.6212 10.9314 20.1987 10.6265C20.445 10.5691 20.6807 10.6093 20.8526 10.8648C20.7738 10.8752 20.6987 10.8938 20.6379 10.916C20.5536 10.9462 20.5864 11.0758 20.6758 11.0511C20.8048 11.0147 20.9295 11.0104 21.0604 11.0419C21.1721 11.069 21.2645 11.1443 21.375 11.1647C21.4395 11.1764 21.504 11.111 21.4643 11.0493C21.4091 10.9617 21.3179 10.9092 21.213 10.8814C21.347 10.7821 21.5145 10.7401 21.6845 10.7913C21.9228 10.8635 21.9532 11.0481 22.0797 11.2221C22.0971 11.2468 22.13 11.2604 22.161 11.2604C22.1808 11.2684 22.2032 11.2696 22.2255 11.2579C22.4259 11.153 22.6834 11.1561 22.8428 11.3338C22.9917 11.4998 22.9154 11.6627 22.9483 11.8522C22.952 11.8707 22.9613 11.8849 22.9743 11.8966C22.9756 11.9201 22.9861 11.9448 23.0122 11.9596C23.1555 12.0448 23.2678 12.1848 23.2479 12.3601V12.3613Z" fill="#C2DDEA"/>
<path d="M23.5879 8.79976C23.5891 8.93307 23.5066 8.97256 23.4316 9.05218C23.3881 9.05218 23.3459 9.09291 23.359 9.14352C23.4074 9.32557 23.4483 9.49838 23.3366 9.66871C23.2312 9.82855 23.0587 9.86003 22.8813 9.87792C22.8577 9.88163 22.8391 9.89089 22.8236 9.90385C22.7988 9.89891 22.7733 9.90631 22.7591 9.93779C22.697 10.0674 22.5971 10.184 22.4538 10.226C22.3328 10.2612 22.2299 10.2248 22.125 10.1772C22.1976 10.1495 22.2621 10.1075 22.308 10.0544C22.3539 10.002 22.2925 9.90385 22.2268 9.95075C22.1455 10.0069 22.0462 10.0501 21.9451 10.0452C21.8396 10.0396 21.7646 9.9742 21.6715 9.93223C21.6095 9.90446 21.5555 9.96001 21.5809 10.0223C21.6008 10.0668 21.6281 10.1032 21.661 10.131C21.5598 10.1674 21.4581 10.1834 21.3464 10.1439C21.2031 10.0927 21.1411 9.98161 21.0424 9.87792C21.0344 9.8699 21.0238 9.86373 21.0133 9.86188C20.9978 9.84583 20.9754 9.83719 20.9475 9.84768C20.883 9.87361 20.816 9.81744 20.7949 9.75758C20.7676 9.68414 20.8017 9.60206 20.7645 9.53602C20.7657 9.51134 20.7577 9.48603 20.7316 9.46629C20.6286 9.38791 20.5424 9.27003 20.5169 9.14166C20.4865 8.99355 20.5554 8.88369 20.5982 8.7473C20.6088 8.71213 20.5945 8.68682 20.5722 8.67016C20.5734 8.6572 20.5722 8.64301 20.5666 8.63066C20.4413 8.35727 20.4928 8.1462 20.7378 7.97093C20.78 7.94192 20.785 7.88453 20.7639 7.84626C20.8036 7.6315 20.9915 7.49819 21.2155 7.53954C21.2639 7.5488 21.2999 7.52658 21.3185 7.49511C21.329 7.49017 21.3396 7.48461 21.3477 7.47412L21.3687 7.44635C21.3135 7.67408 21.2031 7.89008 21.1386 8.11658C21.0517 8.41404 21.0672 8.78804 21.3204 8.96763C21.4519 9.06082 21.6219 9.0818 21.7639 9.15771C21.9271 9.24411 22.0444 9.39593 22.2007 9.49282C22.4259 9.63292 22.738 9.63785 22.952 9.47986C23.1642 9.32125 23.2454 8.9991 23.1071 8.77384C23.0581 8.693 22.9849 8.62573 22.9582 8.53439C22.916 8.39059 23.0029 8.24494 23.0674 8.10917C23.1282 7.97957 23.1704 7.84194 23.1909 7.70062C23.2343 7.72962 23.274 7.7685 23.3081 7.81973C23.3565 7.89317 23.3832 7.98327 23.3844 8.07091C23.3857 8.13879 23.3646 8.20051 23.3528 8.26346C23.3149 8.22273 23.2709 8.18878 23.22 8.16101C23.1648 8.13077 23.1003 8.20545 23.1505 8.25112C23.2163 8.3116 23.2622 8.38751 23.2864 8.47267C23.31 8.55537 23.2876 8.63498 23.3007 8.71645C23.3112 8.78989 23.4111 8.78557 23.4452 8.73496C23.4849 8.67757 23.4874 8.60042 23.4756 8.52698C23.5352 8.60968 23.586 8.70472 23.5873 8.80223L23.5879 8.79976Z" fill="#C2DDEA"/>
</g>
<defs>
<clipPath id="clip0_1330_44112">
<rect width="32" height="31.7975" fill="white" transform="translate(2 2)"/>
</clipPath>
</defs>
</svg>
