<svg width="36" height="36" viewBox="0 0 36 36" fill="none" xmlns="http://www.w3.org/2000/svg">
<g id="Pools/conservative">
<path id="Pools/conservative_2" fill-rule="evenodd" clip-rule="evenodd" d="M35.8901 20C35.9627 19.3433 36 18.676 36 18H0C0 18.676 0.0372666 19.3433 0.109858 20H35.8901ZM35.554 22H0.446033C0.600831 22.6822 0.794377 23.3497 1.02423 24H34.9758C35.2056 23.3497 35.3992 22.6822 35.554 22ZM34.129 26H1.87104C2.21553 26.6932 2.6034 27.3611 3.0311 28H32.9689C33.3966 27.3611 33.7845 26.6932 34.129 26ZM31.4166 30H4.58336C5.22907 30.7214 5.93212 31.3905 6.68533 32H29.3147C30.0679 31.3905 30.7709 30.7214 31.4166 30ZM26.2544 34H9.7456C12.2181 35.2781 15.0247 36 18 36C20.9753 36 23.7819 35.2781 26.2544 34ZM0.109858 16H35.8901C34.8953 7.0001 27.2651 0 18 0C8.73489 0 1.10475 7.0001 0.109858 16Z" fill="url(#paint0_linear_4981_71391)"/>
</g>
<defs>
<linearGradient id="paint0_linear_4981_71391" x1="18" y1="36" x2="18" y2="0" gradientUnits="userSpaceOnUse">
<stop stop-color="#7FFF00"/>
<stop offset="1" stop-color="#F7E15C"/>
</linearGradient>
</defs>
</svg>
