<svg width="32" height="32" viewBox="0 0 32 32" fill="none" xmlns="http://www.w3.org/2000/svg">
<circle cx="16" cy="16" r="16" fill="#50AF95"/>
<path fill-rule="evenodd" clip-rule="evenodd" d="M18.4329 18.1384C18.325 18.1463 17.7672 18.1786 16.5229 18.1786C15.5333 18.1786 14.8307 18.1497 14.5842 18.1384C10.7597 17.975 7.90506 17.3283 7.90506 16.554C7.90506 15.7797 10.7597 15.1339 14.5842 14.9679V17.4943C14.8343 17.5118 15.5504 17.5529 16.54 17.5529C17.7276 17.5529 18.3223 17.5048 18.4293 17.4952V14.9696C22.2457 15.1348 25.094 15.7815 25.094 16.554C25.094 17.3265 22.2466 17.9732 18.4293 18.1375L18.4329 18.1384ZM18.4329 14.7083V12.4475H23.7589V9H9.25816V12.4475H14.5833V14.7074C10.255 14.9006 7 15.7334 7 16.7314C7 17.7294 10.255 18.5614 14.5833 18.7554V26H18.432V18.7527C22.7504 18.5596 26 17.7277 26 16.7305C26 15.7334 22.7531 14.9015 18.432 14.7074L18.4329 14.7083Z" fill="white"/>
</svg>
