<svg width="36" height="36" viewBox="0 0 36 36" fill="none" xmlns="http://www.w3.org/2000/svg">
<g id="icon/32/asset_agreement_32">
<path id="Vector" d="M30.0407 14.067V2.7C30.0407 1.98 29.7696 1.35 29.2274 0.81C28.6852 0.27 28.0527 0 27.3298 0H3.83584C3.11295 0 2.48042 0.27 1.93825 0.81C1.39608 1.35 1.125 1.98 1.125 2.7V33.3C1.125 34.02 1.39608 34.65 1.93825 35.19C2.48042 35.73 3.11295 36 3.83584 36H17.3901V32.31L30.0407 19.71V14.067ZM18.7364 4.554C18.7364 4.554 18.7364 4.554 18.7455 4.554C18.8268 4.599 18.8991 4.653 18.9533 4.725C19.0437 4.842 19.5045 5.454 19.6039 5.58L20.4262 6.678C20.5798 6.885 20.5889 7.182 20.4262 7.389L18.9624 9.333L17.9232 10.71L16.0075 8.163L16.8569 7.029L17.0196 6.813L17.1822 6.597L18.4744 4.887L18.7455 4.536L18.7364 4.554ZM20.1913 14.868H18.2756L15.7093 11.457C15.6551 11.385 15.619 11.304 15.6009 11.214C15.6009 11.178 15.5919 11.142 15.5919 11.106V8.955C15.5919 8.901 15.5919 8.838 15.619 8.784L17.9774 11.916L20.2003 14.877L20.1913 14.868ZM10.9744 6.372L11.5889 5.553L12.2033 4.734C12.2575 4.662 12.3298 4.599 12.4111 4.563C12.4925 4.527 12.5828 4.5 12.6822 4.5H17.9322L16.0075 7.047H11.3178C11.1461 7.047 11.0015 6.948 10.9383 6.813C10.866 6.678 10.875 6.507 10.9744 6.372ZM10.7304 15.192L12.8358 12.393C13.0075 12.168 13.3509 12.168 13.5226 12.393L14.8328 14.13C14.9955 14.337 14.9955 14.634 14.8328 14.841L14.2997 15.543L12.4202 18.036C12.4202 18.036 12.4202 18.036 12.4111 18.036C12.3298 17.991 12.2575 17.937 12.2033 17.865L11.8238 17.361L11.137 16.443L10.7304 15.912C10.5768 15.705 10.5678 15.408 10.7304 15.201V15.192ZM14.119 29.745H8.69729V27.495H14.119V29.745ZM19.5407 24.345H8.69729V22.095H19.5407V24.345ZM20.4352 15.903L20.2003 16.218C20.2003 16.218 19.7666 16.794 19.7395 16.83L18.9533 17.865C18.8449 18.018 18.6642 18.099 18.4744 18.099H13.2334L15.1491 15.552H20.5437C20.5437 15.678 20.5075 15.795 20.4262 15.903H20.4352ZM20.1009 33.435V36H22.6762L31.8931 26.82L29.2726 24.345L20.1009 33.435ZM34.4684 22.32L33.881 21.69C33.6371 21.447 33.3298 21.33 32.9503 21.33C32.5708 21.33 32.2545 21.447 31.9834 21.69L30.5377 23.085L33.113 25.605L34.4684 24.255C34.7395 23.985 34.875 23.661 34.875 23.283C34.875 22.905 34.7395 22.59 34.4684 22.32Z" fill="url(#paint0_linear_5232_87711)"/>
</g>
<defs>
<linearGradient id="paint0_linear_5232_87711" x1="1.125" y1="33.2535" x2="34.875" y2="33.2535" gradientUnits="userSpaceOnUse">
<stop stop-color="#07F1AB"/>
<stop offset="1" stop-color="#A0FF88"/>
</linearGradient>
</defs>
</svg>
