<svg width="24" height="24" viewBox="0 0 24 24" fill="none" xmlns="http://www.w3.org/2000/svg">
<path d="M12 21C16.9706 21 21 16.9706 21 12C21 7.02944 16.9706 3 12 3C7.02944 3 3 7.02944 3 12C3 16.9706 7.02944 21 12 21Z" fill="#FF0420"/>
<path d="M9.37562 14.3904C8.83922 14.3904 8.40001 14.2644 8.05801 14.0124C7.71961 13.7568 7.55042 13.3896 7.55042 12.918C7.55042 12.8172 7.56122 12.6984 7.58282 12.5544C7.64042 12.2304 7.72321 11.8416 7.83121 11.3844C8.13721 10.146 8.92922 9.5268 10.2036 9.5268C10.5492 9.5268 10.8624 9.5844 11.136 9.7032C11.4096 9.8148 11.6256 9.9876 11.784 10.218C11.9424 10.4448 12.0216 10.7148 12.0216 11.028C12.0216 11.1216 12.0108 11.2404 11.9892 11.3844C11.9208 11.784 11.8416 12.1764 11.7444 12.5544C11.586 13.17 11.316 13.6344 10.9272 13.9404C10.542 14.2428 10.0236 14.3904 9.37562 14.3904ZM9.47282 13.4184C9.72481 13.4184 9.93722 13.3428 10.1136 13.1952C10.2936 13.0476 10.4232 12.8208 10.4988 12.5112C10.6032 12.0864 10.6824 11.7192 10.7364 11.4024C10.7544 11.3088 10.7652 11.2116 10.7652 11.1108C10.7652 10.7004 10.5528 10.4952 10.1244 10.4952C9.87241 10.4952 9.65641 10.5708 9.47641 10.7184C9.30001 10.866 9.17401 11.0928 9.09841 11.4024C9.01561 11.7048 8.93642 12.072 8.85362 12.5112C8.83562 12.6012 8.82482 12.6948 8.82482 12.7956C8.82122 13.2132 9.04081 13.4184 9.47282 13.4184Z" fill="white"/>
<path d="M12.3348 14.3256C12.2844 14.3256 12.2484 14.3112 12.2196 14.2788C12.198 14.2428 12.1908 14.2032 12.198 14.1564L13.1304 9.7644C13.1376 9.714 13.1628 9.6744 13.206 9.642C13.2456 9.6096 13.2888 9.5952 13.3356 9.5952H15.132C15.6324 9.5952 16.032 9.6996 16.3344 9.9048C16.6404 10.1136 16.7952 10.4124 16.7952 10.8048C16.7952 10.9164 16.7808 11.0352 16.7556 11.1576C16.644 11.676 16.4172 12.0576 16.0716 12.306C15.7332 12.5544 15.2688 12.6768 14.6784 12.6768H13.7676L13.458 14.1564C13.4472 14.2068 13.4256 14.2464 13.3824 14.2788C13.3428 14.3112 13.2996 14.3256 13.2528 14.3256H12.3348ZM14.7252 11.7444C14.916 11.7444 15.078 11.694 15.2184 11.5896C15.3624 11.4852 15.456 11.3376 15.5028 11.1432C15.5172 11.0676 15.5244 10.9992 15.5244 10.9416C15.5244 10.812 15.4848 10.7112 15.4092 10.6428C15.3336 10.5708 15.2004 10.5348 15.0168 10.5348H14.2068L13.9512 11.7444H14.7252Z" fill="white"/>
</svg>
