<svg width="32" height="32" viewBox="0 0 32 32" fill="none" xmlns="http://www.w3.org/2000/svg">
<path d="M32 16C32 7.16344 24.8366 0 16 0C7.16344 0 0 7.16344 0 16C0 24.8366 7.16344 32 16 32C24.8366 32 32 24.8366 32 16Z" fill="#A28CFF"/>
<path d="M11.9944 11.4576C12.4657 15.2027 9.01549 20.6241 7.43187 22.9551C7.135 23.3921 7.29672 23.5287 7.70383 23.1921C11.6453 19.9328 16.3406 17.6227 19.446 18.0739C19.5651 18.0911 19.593 18.2443 19.4913 18.3087C18.1649 19.1486 15.959 20.7687 15.4197 22.1311C15.1725 22.7555 15.0371 23.9309 15.0246 24.7722C15.02 25.0896 15.2834 25.3332 15.6009 25.3332H24.7373C25.0613 25.3332 25.3304 25.079 25.3326 24.7551C25.3879 16.5971 17.2883 9.43948 13.1362 6.8325C12.5019 6.35813 11.3854 6.61904 11.9944 11.4576Z" fill="black"/>
</svg>
