<svg width="24" height="24" viewBox="0 0 24 24" fill="none" xmlns="http://www.w3.org/2000/svg">
<g clip-path="url(#clip0_1194_11527)">
<path fill-rule="evenodd" clip-rule="evenodd" d="M12 3C16.9709 3 21 7.02909 21 12C21 16.9709 16.9709 21 12 21C7.02909 21 3 16.9709 3 12C3 7.02909 7.02909 3 12 3Z" fill="#F0B90B"/>
<path d="M7.94638 12L7.95287 14.3798L9.97499 15.5697V16.963L6.76946 15.0829V11.3041L7.94638 12ZM7.94638 9.62019V11.007L6.76874 10.3103V8.92356L7.94638 8.22692L9.1298 8.92356L7.94638 9.62019ZM10.8195 8.92356L11.9971 8.22692L13.1805 8.92356L11.9971 9.62019L10.8195 8.92356Z" fill="white"/>
<path d="M8.79736 13.8865V12.4933L9.97501 13.1899V14.5767L8.79736 13.8865ZM10.8195 16.0687L11.9971 16.7654L13.1805 16.0687V17.4555L11.9971 18.1522L10.8195 17.4555V16.0687ZM14.8695 8.92356L16.0471 8.22692L17.2305 8.92356V10.3103L16.0471 11.007V9.62019L14.8695 8.92356ZM16.0471 14.3798L16.0536 12L17.2313 11.3034V15.0822L14.0257 16.9623V15.569L16.0471 14.3798Z" fill="white"/>
<path d="M15.2027 13.8865L14.025 14.5767V13.1899L15.2027 12.4933V13.8865Z" fill="white"/>
<path d="M15.2027 10.1135L15.2091 11.5067L13.1813 12.6966V15.0822L12.0036 15.7724L10.826 15.0822V12.6966L8.79808 11.5067V10.1135L9.98078 9.41683L11.9964 10.6125L14.0243 9.41683L15.2077 10.1135H15.2027ZM8.79736 7.73438L11.9971 5.84784L15.2027 7.73438L14.025 8.43101L11.9971 7.23534L9.97501 8.43101L8.79736 7.73438Z" fill="white"/>
</g>
<defs>
<clipPath id="clip0_1194_11527">
<rect width="18" height="18" fill="white" transform="translate(3 3)"/>
</clipPath>
</defs>
</svg>
