<svg width="20" height="20" viewBox="0 0 20 20" fill="none" xmlns="http://www.w3.org/2000/svg">
<path d="M10 20C15.5228 20 20 15.5228 20 10C20 4.47715 15.5228 0 10 0C4.47715 0 0 4.47715 0 10C0 15.5228 4.47715 20 10 20Z" fill="white"/>
<g clip-path="url(#clip0_99_740)">
<path d="M9.91781 3.40137C9.38825 3.40385 8.86439 3.50471 8.37616 3.69821C7.88793 3.89172 7.44489 4.17409 7.07232 4.52916C6.69977 4.88422 6.405 5.30505 6.20484 5.7676C6.00469 6.23016 5.90308 6.72537 5.90582 7.22499V8.48795H9.16559V6.65817C9.16555 6.57224 9.18346 6.48714 9.21829 6.40774C9.25313 6.32834 9.3042 6.2562 9.36861 6.19543C9.43301 6.13466 9.50947 6.08648 9.59362 6.05359C9.67777 6.02071 9.76797 6.0038 9.85905 6.00382H9.97657C10.0677 6.0038 10.1579 6.02071 10.242 6.05359C10.3262 6.08647 10.4026 6.13466 10.4671 6.19543C10.5315 6.2562 10.5826 6.32834 10.6174 6.40774C10.6523 6.48714 10.6702 6.57223 10.6702 6.65817V11.5634C11.0983 11.5634 11.5222 11.4838 11.9177 11.3293C12.3132 11.1748 12.6725 10.9482 12.9752 10.6627C13.2779 10.3771 13.518 10.038 13.6819 9.6649C13.8456 9.29176 13.9299 8.89182 13.9299 8.48795V7.22499C13.9323 6.21271 13.5098 5.24073 12.7548 4.52146C12.3843 4.16653 11.9427 3.8847 11.4556 3.6924C10.9686 3.5001 10.4458 3.40116 9.91781 3.40137Z" fill="black"/>
<path d="M9.97673 14.0467H9.85921C9.76814 14.0468 9.67795 14.0298 9.59381 13.997C9.50967 13.9641 9.43321 13.9159 9.36881 13.8552C9.30441 13.7944 9.25334 13.7223 9.2185 13.6429C9.18365 13.5635 9.16572 13.4784 9.16574 13.3925V8.4873C8.73765 8.48727 8.31375 8.56679 7.91823 8.72133C7.52273 8.87587 7.16337 9.1024 6.86066 9.38798C6.55795 9.67357 6.31783 10.0126 6.15403 10.3858C5.99022 10.7589 5.90594 11.1588 5.90597 11.5627V12.8081C5.90054 13.3084 6.00031 13.8048 6.1995 14.2686C6.39869 14.7323 6.69335 15.1541 7.06644 15.5098C7.43954 15.8654 7.88365 16.1477 8.37312 16.3404C8.86259 16.533 9.38768 16.6322 9.91803 16.6322C10.4484 16.6322 10.9735 16.533 11.463 16.3404C11.9524 16.1477 12.3965 15.8654 12.7696 15.5098C13.1427 15.1541 13.4374 14.7323 13.6365 14.2686C13.8358 13.8048 13.9355 13.3084 13.9301 12.8081V11.5627H10.6703V13.3925C10.6703 13.4784 10.6524 13.5635 10.6175 13.6429C10.5827 13.7223 10.5316 13.7944 10.4672 13.8552C10.4028 13.9159 10.3263 13.9641 10.2421 13.997C10.158 14.0298 10.0678 14.0468 9.97673 14.0467Z" fill="black"/>
</g>
<defs>
<clipPath id="clip0_99_740">
<rect width="8.33333" height="13.3333" fill="white" transform="translate(5.8335 3.33325)"/>
</clipPath>
</defs>
</svg>
