<svg width="20" height="20" viewBox="0 0 20 20" fill="none" xmlns="http://www.w3.org/2000/svg">
<g clip-path="url(#clip0_99_167)">
<path d="M19.5 10C19.5 15.2467 15.2467 19.5 10 19.5C4.75329 19.5 0.5 15.2467 0.5 10C0.5 4.7533 4.7533 0.5 10 0.5C15.2467 0.5 19.5 4.75329 19.5 10Z" fill="#242D35" stroke="#3FABD1"/>
<path d="M11.07 6.43L11.205 6.25L11.3383 6.07167L12.4183 4.63167L12.6416 4.33334C12.5748 4.30209 12.5021 4.2856 12.4283 4.285H7.57164C7.49358 4.28567 7.41668 4.3039 7.34664 4.33834C7.28062 4.3746 7.22364 4.4253 7.17997 4.48667L6.65664 5.16667L6.14164 5.85334C6.10202 5.90642 6.07796 5.96949 6.07217 6.03547C6.06637 6.10145 6.07907 6.16775 6.10883 6.22692C6.13859 6.2861 6.18424 6.33582 6.24067 6.37051C6.29709 6.4052 6.36207 6.42349 6.4283 6.42334H11.07V6.43Z" fill="#86EAE0"/>
<path d="M10.0083 9.92666C10.0235 10.0014 10.0548 10.0719 10.1 10.1333L12.6783 13.5717H14.1667C14.1667 13.4635 14.1316 13.3582 14.0667 13.2717L12 10.515L10.02 7.88333C10.0067 7.92881 10 7.97595 10 8.02333V9.83333C10.0002 9.86462 10.003 9.89583 10.0083 9.92666Z" fill="#86EAE0"/>
<path d="M12.8334 8.36501L14.06 6.72834C14.1249 6.6418 14.16 6.53653 14.16 6.42834C14.16 6.32016 14.1249 6.21489 14.06 6.12834L13.37 5.20668L12.8334 4.48501C12.7849 4.42149 12.7228 4.36966 12.6517 4.33334H12.6417L12.4184 4.63168L11.3334 6.07168L11.2 6.25001L11.065 6.43001L10.1 7.72334C10.0632 7.77344 10.0361 7.82996 10.02 7.89001L11.6067 10L12.8334 8.36501Z" fill="#3FABD1"/>
<path d="M9.37171 12.38L8.27505 10.9184C8.24164 10.8742 8.19844 10.8383 8.14884 10.8136C8.09925 10.789 8.04461 10.7761 7.98921 10.7761C7.93382 10.7761 7.87918 10.789 7.82958 10.8136C7.77999 10.8383 7.73679 10.8742 7.70338 10.9184L5.93838 13.2717C5.87347 13.3582 5.83838 13.4635 5.83838 13.5717C5.83838 13.6799 5.87347 13.7851 5.93838 13.8717L6.27171 14.3217L6.84838 15.09L7.16671 15.515C7.21343 15.5769 7.27391 15.6272 7.34338 15.6617L8.91505 13.5667L9.35838 12.975C9.42406 12.8904 9.46081 12.7868 9.46321 12.6797C9.46561 12.5726 9.43354 12.4675 9.37171 12.38Z" fill="#86EAE0"/>
<path d="M13.5884 13.5717H8.92169L7.35669 15.6667C7.42415 15.6977 7.49742 15.7142 7.57169 15.715H12.4267C12.5043 15.715 12.5809 15.6969 12.6503 15.6622C12.7197 15.6275 12.7801 15.5771 12.8267 15.515L13.4817 14.6417L13.8667 14.1283L14.0634 13.8667C14.1284 13.7819 14.1647 13.6785 14.1667 13.5717H13.5884Z" fill="#3FABD1"/>
</g>
<defs>
<clipPath id="clip0_99_167">
<rect width="20" height="20" fill="white"/>
</clipPath>
</defs>
</svg>
