<svg width="36" height="36" viewBox="0 0 36 36" fill="none" xmlns="http://www.w3.org/2000/svg">
<g id="icon/32/asset_locked_32">
<path id="Vector" d="M24.9862 1.125L34.875 11.0138V24.9975L24.9862 34.8862H11.0025L1.125 24.9862V11.0025L11.0138 1.125H24.9975M25.4587 0H10.5525L0 10.5413V25.4587L10.5413 36H25.4475L35.9888 25.4587V10.5413L25.4587 0Z" fill="url(#paint0_linear_5232_86399)"/>
<path id="Subtract" fill-rule="evenodd" clip-rule="evenodd" d="M11.9475 3.375H24.0525L32.625 11.9475V24.0525L24.0525 32.625H11.9475L3.375 24.0525V11.9475L11.9475 3.375ZM11.6213 25.4979C11.8702 25.7507 12.1655 25.875 12.5156 25.875H23.4886C23.8388 25.875 24.1341 25.7507 24.383 25.4979C24.6319 25.245 24.7542 24.945 24.7542 24.5893V15.2893C24.7542 14.9336 24.6319 14.6336 24.383 14.3807C24.1341 14.1279 23.8388 14.0036 23.4886 14.0036H22.012V11.9464C22.012 10.8193 21.6197 9.85929 20.8392 9.06643C20.0588 8.27357 19.1138 7.875 18.0042 7.875C16.8947 7.875 15.9455 8.27357 15.165 9.06643C14.3845 9.85929 13.9922 10.8193 13.9922 11.9464V14.0036H12.5156C12.1655 14.0036 11.8702 14.1279 11.6213 14.3807C11.3723 14.6336 11.25 14.9336 11.25 15.2893V24.5893C11.25 24.945 11.3723 25.245 11.6213 25.4979ZM19.1517 21.1179C18.8353 21.4307 18.4514 21.5893 18.0042 21.5893C17.5528 21.5893 17.1689 21.435 16.8525 21.1179C16.5361 20.8007 16.3758 20.4279 16.3758 19.9907C16.3758 19.5536 16.5361 19.1636 16.8525 18.8121C17.1689 18.4607 17.5486 18.285 18 18.285C18.4514 18.285 18.8353 18.4607 19.1517 18.8121C19.4681 19.1636 19.6284 19.5407 19.6284 19.9821C19.6284 20.4236 19.4681 20.805 19.1517 21.1179ZM20.7422 14.0036H15.2578V11.9464C15.2578 11.175 15.5236 10.515 16.0594 9.975C16.5952 9.43071 17.2448 9.16071 18.0042 9.16071C18.7636 9.16071 19.4133 9.435 19.9448 9.975C20.4764 10.515 20.7422 11.1707 20.7422 11.9464V14.0036Z" fill="url(#paint1_linear_5232_86399)"/>
</g>
<defs>
<linearGradient id="paint0_linear_5232_86399" x1="0" y1="33.2535" x2="35.9888" y2="33.2535" gradientUnits="userSpaceOnUse">
<stop stop-color="#07F1AB"/>
<stop offset="1" stop-color="#A0FF88"/>
</linearGradient>
<linearGradient id="paint1_linear_5232_86399" x1="3.375" y1="30.3935" x2="32.625" y2="30.3935" gradientUnits="userSpaceOnUse">
<stop stop-color="#07F1AB"/>
<stop offset="1" stop-color="#A0FF88"/>
</linearGradient>
</defs>
</svg>
