<svg width="20" height="20" viewBox="0 0 20 20" fill="none" xmlns="http://www.w3.org/2000/svg">
<g id="Protocol Icon">
<path id="Vector" d="M12.3193 9.1452L13.8309 6.65797L17.9053 12.8116L17.9072 13.9925L17.8939 5.86607C17.8842 5.66735 17.7754 5.48559 17.6019 5.37837L10.2665 1.28695C10.095 1.20516 9.87731 1.20614 9.70608 1.28953C9.6829 1.30083 9.66124 1.31299 9.64047 1.32637L9.61489 1.34197L2.49465 5.343L2.46704 5.35528C2.43146 5.371 2.39561 5.39127 2.3618 5.4146C2.22679 5.50843 2.13712 5.64733 2.10811 5.80294C2.10381 5.82652 2.10051 5.85059 2.09912 5.87491L2.11027 12.4972L5.90539 6.79331C6.38312 6.03702 7.42419 5.79324 8.39067 5.80662L9.52484 5.83561L2.84181 16.2285L3.62958 16.6683L10.3927 5.84617L13.382 5.83561L6.63642 16.9309L9.44746 18.4988L9.78334 18.686C9.92544 18.742 10.0929 18.7448 10.2361 18.6946L17.6746 14.5145L16.2525 15.3136L12.3193 9.1452ZM12.8959 17.1999L10.0568 12.8787L11.79 10.0268L15.5188 15.7259L12.8959 17.1999Z" fill="#2D374B"/>
<path id="Vector_2" d="M10.0562 12.8789L12.8954 17.2L15.5181 15.7261L11.7894 10.0269L10.0562 12.8789Z" fill="#28A0F0"/>
<path id="Vector_3" d="M17.9067 13.9926L17.9048 12.8116L13.8304 6.65806L12.3188 9.14528L16.2521 15.3137L17.6743 14.5146C17.8138 14.4048 17.8982 14.2435 17.9071 14.0696L17.9067 13.9926Z" fill="#28A0F0"/>
<path id="Vector_4" d="M0.833252 15.1064L2.84157 16.2285L9.5246 5.83564L8.39043 5.80665C7.42408 5.79339 6.383 6.03705 5.90514 6.79334L2.11003 12.4972L0.833252 14.3994V15.1064Z" fill="white"/>
<path id="Vector_5" d="M13.3818 5.83562L10.3925 5.84618L3.62939 16.6683L5.99335 17.988L6.63611 16.9309L13.3818 5.83562Z" fill="white"/>
<path id="Vector_6" d="M19.1666 5.82064C19.1416 5.21443 18.8031 4.65956 18.2729 4.33643L10.8414 0.192204C10.3169 -0.0638632 9.66176 -0.0642315 9.13628 0.192081C9.07422 0.222416 1.90928 4.25194 1.90928 4.25194C1.81012 4.29799 1.71462 4.35289 1.62482 4.41528C1.15153 4.7443 0.863015 5.25545 0.833252 5.81695V14.3996L2.11003 12.4973L2.09888 5.87492C2.1004 5.85073 2.10357 5.82678 2.10787 5.80332C2.13675 5.64747 2.22655 5.50857 2.36156 5.41462C2.39537 5.39128 9.68253 1.30084 9.70571 1.28955C9.87707 1.20615 10.0947 1.20517 10.2661 1.28697L17.6016 5.37838C17.7751 5.4856 17.8839 5.66737 17.8935 5.86608V14.0694C17.8846 14.2433 17.8137 14.4046 17.6742 14.5144L16.2521 15.3135L15.5183 15.7259L12.8956 17.1998L10.2357 18.6945C10.0925 18.7447 9.92494 18.7419 9.78296 18.6859L6.63605 16.9307L5.99317 17.9879L8.8213 19.5668C8.91477 19.6184 8.9981 19.6641 9.06649 19.7014C9.17238 19.759 9.24457 19.7975 9.27002 19.8095C9.47102 19.9042 9.76017 19.9592 10.0208 19.9592C10.2597 19.9592 10.4927 19.9167 10.7132 19.833L18.4388 15.4946C18.8822 15.1614 19.1432 14.6589 19.1666 14.1147V5.82064Z" fill="#96BEDC"/>
</g>
</svg>
