<svg width="24" height="24" viewBox="0 0 24 24" fill="none" xmlns="http://www.w3.org/2000/svg">
<rect width="24" height="24" rx="4" fill="#305C85" fill-opacity="0.3"/>
<path d="M17.5535 7.68993C16.5027 7.23183 15.3928 6.90565 14.2526 6.72217C14.0966 6.98839 13.9556 7.26181 13.8298 7.54123C12.6154 7.36734 11.3808 7.36734 10.1664 7.54123C10.0406 7.26181 9.89961 6.98839 9.74357 6.72217C8.60341 6.90804 7.49219 7.23423 6.44013 7.69233C4.3511 10.6376 3.78479 13.5097 4.06794 16.341C5.29116 17.202 6.66036 17.858 8.11639 18.2777C8.44358 17.858 8.73429 17.4119 8.98346 16.9454C8.51028 16.7775 8.05346 16.5689 7.61804 16.3242C7.73256 16.2451 7.84456 16.1635 7.95279 16.0844C10.5163 17.2332 13.4837 17.2332 16.0472 16.0844C16.1566 16.1695 16.2686 16.2511 16.3819 16.3242C15.9465 16.5701 15.4884 16.7775 15.014 16.9466C15.2631 17.4131 15.5526 17.858 15.881 18.2777C17.3383 17.8592 18.7088 17.2044 19.932 16.3422C20.2642 13.0588 19.3644 10.2131 17.5535 7.68993ZM9.34212 14.5998C8.55307 14.5998 7.90119 13.9174 7.90119 13.078C7.90119 12.2385 8.53042 11.5502 9.3396 11.5502C10.1488 11.5502 10.7956 12.2385 10.7818 13.078C10.7679 13.9174 10.1463 14.5998 9.34212 14.5998ZM14.6578 14.5998C13.8675 14.5998 13.2182 13.9174 13.2182 13.078C13.2182 12.2385 13.8474 11.5502 14.6578 11.5502C15.4683 11.5502 16.1101 12.2385 16.0962 13.078C16.0824 13.9174 15.462 14.5998 14.6578 14.5998Z" fill="#A2D5DF"/>
</svg>
