<svg width="20" height="20" viewBox="0 0 20 20" fill="none" xmlns="http://www.w3.org/2000/svg">
<g id="icon/20/error_20">
<path id="Vector" d="M9.43734 10.9795H10.6873V5.70866H9.43734V10.9795ZM9.99984 14.167C10.1943 14.167 10.3575 14.101 10.4894 13.9691C10.6214 13.8371 10.6873 13.6739 10.6873 13.4795C10.6873 13.285 10.6214 13.1219 10.4894 12.9899C10.3575 12.858 10.1943 12.792 9.99984 12.792C9.80539 12.792 9.6422 12.858 9.51025 12.9899C9.37831 13.1219 9.31234 13.285 9.31234 13.4795C9.31234 13.6739 9.37831 13.8371 9.51025 13.9691C9.6422 14.101 9.80539 14.167 9.99984 14.167ZM9.99984 18.3337C8.81928 18.3337 7.72206 18.1219 6.70817 17.6982C5.69428 17.2746 4.81234 16.6878 4.06234 15.9378C3.31234 15.1878 2.72553 14.3059 2.30192 13.292C1.87831 12.2781 1.6665 11.1809 1.6665 10.0003C1.6665 8.83366 1.87831 7.74338 2.30192 6.72949C2.72553 5.7156 3.31234 4.83366 4.06234 4.08366C4.81234 3.33366 5.69428 2.74338 6.70817 2.31283C7.72206 1.88227 8.81928 1.66699 9.99984 1.66699C11.1665 1.66699 12.2568 1.88227 13.2707 2.31283C14.2846 2.74338 15.1665 3.33366 15.9165 4.08366C16.6665 4.83366 17.2568 5.7156 17.6873 6.72949C18.1179 7.74338 18.3332 8.83366 18.3332 10.0003C18.3332 11.1809 18.1179 12.2781 17.6873 13.292C17.2568 14.3059 16.6665 15.1878 15.9165 15.9378C15.1665 16.6878 14.2846 17.2746 13.2707 17.6982C12.2568 18.1219 11.1665 18.3337 9.99984 18.3337ZM9.99984 17.0837C11.9443 17.0837 13.6109 16.3892 14.9998 15.0003C16.3887 13.6114 17.0832 11.9448 17.0832 10.0003C17.0832 8.05588 16.3887 6.38921 14.9998 5.00033C13.6109 3.61144 11.9443 2.91699 9.99984 2.91699C8.05539 2.91699 6.38873 3.61144 4.99984 5.00033C3.61095 6.38921 2.9165 8.05588 2.9165 10.0003C2.9165 11.9448 3.61095 13.6114 4.99984 15.0003C6.38873 16.3892 8.05539 17.0837 9.99984 17.0837Z" fill="#FD2C52"/>
</g>
</svg>
