<svg width="24" height="24" viewBox="0 0 24 24" fill="none" xmlns="http://www.w3.org/2000/svg">
<path d="M12.25 18.85C12.4167 18.8333 12.5583 18.7667 12.675 18.65C12.7917 18.5333 12.85 18.4 12.85 18.25C12.85 18.05 12.7877 17.896 12.663 17.788C12.5377 17.6793 12.3833 17.6333 12.2 17.65C11.5167 17.7 10.771 17.5 9.963 17.05C9.15433 16.6 8.65 15.8167 8.45 14.7C8.41667 14.5333 8.346 14.4 8.238 14.3C8.12933 14.2 8 14.15 7.85 14.15C7.66667 14.15 7.51267 14.2207 7.388 14.362C7.26267 14.504 7.225 14.675 7.275 14.875C7.54167 16.3417 8.196 17.3833 9.238 18C10.2793 18.6167 11.2833 18.9 12.25 18.85V18.85ZM12 21.5C9.85 21.5 8.06267 20.7627 6.638 19.288C5.21267 17.8127 4.5 15.9833 4.5 13.8C4.5 12.25 5.12067 10.55 6.362 8.7C7.604 6.85 9.48333 4.83333 12 2.65C14.5167 4.83333 16.3957 6.85 17.637 8.7C18.879 10.55 19.5 12.25 19.5 13.8C19.5 15.9833 18.7833 17.8127 17.35 19.288C15.9167 20.7627 14.1333 21.5 12 21.5ZM12 20C13.7333 20 15.1667 19.4127 16.3 18.238C17.4333 17.0627 18 15.5833 18 13.8C18 12.5833 17.496 11.2083 16.488 9.675C15.4793 8.14167 13.9833 6.46667 12 4.65C10.0167 6.46667 8.521 8.14167 7.513 9.675C6.50433 11.2083 6 12.5833 6 13.8C6 15.5833 6.56667 17.0627 7.7 18.238C8.83333 19.4127 10.2667 20 12 20Z" fill="white"/>
</svg>
