<svg width="24" height="24" viewBox="0 0 24 24" fill="none" xmlns="http://www.w3.org/2000/svg">
<rect width="24" height="24" rx="4" fill="#305C85" fill-opacity="0.3"/>
<path d="M11.102 16.1548C11.3832 16.1548 11.6363 16.3704 11.6363 16.667C11.6363 16.9366 11.4113 17.1792 11.102 17.1792C10.8208 17.1792 10.5678 16.9635 10.5678 16.667C10.5678 16.3704 10.8208 16.1548 11.102 16.1548ZM19.3691 13.0276C19.0879 13.0276 18.8348 12.8119 18.8348 12.5154C18.8348 12.2458 19.0598 12.0032 19.3691 12.0032C19.6503 12.0032 19.9033 12.2188 19.9033 12.5154C19.9033 12.785 19.6503 13.0276 19.3691 13.0276ZM19.3691 10.9518C18.4693 10.9518 17.7382 11.6527 17.7382 12.5154C17.7382 12.6771 17.7663 12.8389 17.8225 13.0006L12.4517 15.7504C12.1424 15.319 11.6363 15.0764 11.102 15.0764C10.4834 15.0764 9.92102 15.4269 9.63983 15.9391L4.80333 13.5128C4.29718 13.2432 3.90351 12.4614 3.95975 11.7066C3.98787 11.3292 4.12847 11.0326 4.3253 10.9248C4.4659 10.8439 4.60649 10.8709 4.80333 10.9518L4.83145 10.9787C6.12493 11.6257 10.3147 13.7285 10.4834 13.8094C10.7646 13.9172 10.9052 13.9711 11.3832 13.7555L20.0439 9.4421C20.1845 9.38818 20.3251 9.28035 20.3251 9.09164C20.3251 8.84901 20.072 8.74118 20.072 8.74118C19.5659 8.52551 18.8067 8.17505 18.0756 7.85155C16.5009 7.15062 14.7013 6.34187 13.9139 5.93749C13.2391 5.58703 12.6767 5.88357 12.5923 5.93749L12.3955 6.01837C8.82437 7.74371 4.10035 9.98127 3.81916 10.143C3.34113 10.4126 3.03182 10.9787 3.0037 11.6797C2.94746 12.785 3.53797 13.9442 4.38154 14.3485L9.49923 16.8826C9.61171 17.6375 10.3147 18.2306 11.102 18.2306C12.0018 18.2306 12.7048 17.5566 12.7329 16.6939L18.3568 13.7824C18.638 13.9981 19.0035 14.1059 19.3691 14.1059C20.2689 14.1059 21 13.405 21 12.5423C21 11.6527 20.2689 10.9518 19.3691 10.9518Z" fill="#A2D5DF"/>
</svg>
