<svg width="24" height="24" viewBox="0 0 24 24" fill="none" xmlns="http://www.w3.org/2000/svg">
<g clip-path="url(#clip0_5344_78458)">
<rect width="24" height="24" rx="4" fill="#305C85" fill-opacity="0.3"/>
<g clip-path="url(#clip1_5344_78458)">
<path fill-rule="evenodd" clip-rule="evenodd" d="M11.9762 4C7.56555 4 4 7.66667 4 12.2028C4 15.8288 6.28457 18.8982 9.45388 19.9845C9.85012 20.0662 9.99527 19.808 9.99527 19.5908C9.99527 19.4007 9.9822 18.7488 9.9822 18.0697C7.76343 18.5587 7.30139 17.0918 7.30139 17.0918C6.94482 16.1412 6.41649 15.8968 6.41649 15.8968C5.69029 15.3943 6.46939 15.3943 6.46939 15.3943C7.27494 15.4487 7.69763 16.2363 7.69763 16.2363C8.41061 17.4857 9.55951 17.1327 10.0217 16.9153C10.0877 16.3857 10.2991 16.019 10.5236 15.8153C8.75396 15.6252 6.89208 14.919 6.89208 11.7682C6.89208 10.8718 7.20882 10.1385 7.71069 9.56817C7.63151 9.3645 7.35412 8.52233 7.79004 7.39517C7.79004 7.39517 8.46351 7.17783 9.98204 8.23717C10.6322 8.05761 11.3027 7.96627 11.9762 7.9655C12.6496 7.9655 13.3362 8.06067 13.9701 8.23717C15.4888 7.17783 16.1623 7.39517 16.1623 7.39517C16.5982 8.52233 16.3207 9.3645 16.2415 9.56817C16.7566 10.1385 17.0602 10.8718 17.0602 11.7682C17.0602 14.919 15.1984 15.6115 13.4155 15.8153C13.7061 16.0733 13.9569 16.5622 13.9569 17.3363C13.9569 18.4363 13.9438 19.3192 13.9438 19.5907C13.9438 19.808 14.0891 20.0662 14.4852 19.9847C17.6545 18.898 19.9391 15.8288 19.9391 12.2028C19.9522 7.66667 16.3736 4 11.9762 4Z" fill="#A2D5DF"/>
</g>
</g>
<defs>
<clipPath id="clip0_5344_78458">
<rect width="24" height="24" fill="white"/>
</clipPath>
<clipPath id="clip1_5344_78458">
<rect width="16" height="16" fill="white" transform="translate(4 4)"/>
</clipPath>
</defs>
</svg>
