<svg width="20" height="20" viewBox="0 0 20 20" fill="none" xmlns="http://www.w3.org/2000/svg">
<path d="M9.98402 16.584C8.15175 16.584 6.59647 15.9449 5.31816 14.6666C4.03986 13.3882 3.40338 11.8329 3.40872 10.0007H4.476C4.49202 11.5092 5.03556 12.803 6.1066 13.8821C7.17766 14.9612 8.47013 15.5007 9.98402 15.5007C11.4979 15.5007 12.793 14.9625 13.8694 13.8861C14.9458 12.8097 15.484 11.5146 15.484 10.0007C15.484 8.48681 14.9458 7.19167 13.8694 6.11528C12.793 5.03889 11.4979 4.5007 9.98402 4.5007C9.17099 4.5007 8.41826 4.65844 7.72583 4.97393C7.03341 5.28941 6.43518 5.72355 5.93114 6.27632H8.04812V7.35964H3.81741V3.12891H4.9007V5.85328C5.50754 5.11077 6.24792 4.51916 7.12185 4.07845C7.99578 3.63774 8.94984 3.41739 9.98402 3.41739C10.8975 3.41739 11.7534 3.59009 12.5517 3.93551C13.35 4.28091 14.0462 4.7506 14.6401 5.34457C15.2341 5.93856 15.7038 6.63471 16.0492 7.43303C16.3946 8.23135 16.5673 9.08724 16.5673 10.0007C16.5673 10.9142 16.3946 11.77 16.0492 12.5684C15.7038 13.3667 15.2341 14.0628 14.6401 14.6568C14.0462 15.2508 13.35 15.7205 12.5517 16.0659C11.7534 16.4113 10.8975 16.584 9.98402 16.584ZM12.2356 12.6898L9.46639 9.92057V6.0007H10.5497V9.45582L13.0096 11.9158L12.2356 12.6898Z" fill="#86EAE0"/>
</svg>
