<svg width="24" height="24" viewBox="0 0 24 24" fill="none" xmlns="http://www.w3.org/2000/svg">
<rect width="24" height="24" rx="4" fill="#2D3639"/>
<path d="M16.1013 19H19V13.8705C19 11.3523 18.4581 9.41644 15.52 9.41644C14.9687 9.39591 14.4222 9.52553 13.9386 9.79151C13.4551 10.0575 13.0526 10.4498 12.774 10.9268H12.7365V9.64875H9.95376V18.9996H12.8525V14.3719C12.8525 13.1521 13.0836 11.9707 14.5934 11.9707C16.0818 11.9707 16.1013 13.3671 16.1013 14.4516V19Z" fill="white"/>
<path d="M5.74798 8.0865C6.0247 8.27162 6.35001 8.37039 6.68278 8.37032C7.12891 8.37022 7.55674 8.19263 7.87217 7.87661C8.1876 7.56059 8.3648 7.13202 8.3648 6.68516C8.3648 6.35185 8.26612 6.02603 8.08124 5.7489C7.89636 5.47176 7.63358 5.25577 7.32614 5.12824C7.0187 5.00071 6.68041 4.96736 6.35404 5.03241C6.02768 5.09746 5.72791 5.25799 5.49263 5.49371C5.25736 5.72942 5.09716 6.02972 5.03228 6.35663C4.96741 6.68354 5.00078 7.02238 5.12817 7.3303C5.25557 7.63822 5.47126 7.90138 5.74798 8.0865Z" fill="white"/>
<path d="M5.23043 18.9996H8.13213L8.1325 9.64875H5.23043V18.9996Z" fill="white"/>
</svg>
