<svg width="24" height="24" viewBox="0 0 24 24" fill="none" xmlns="http://www.w3.org/2000/svg">
<path d="M4.80768 21C4.30256 21 3.875 20.825 3.525 20.475C3.175 20.125 3 19.6974 3 19.1923V4.8077C3 4.30257 3.175 3.875 3.525 3.525C3.875 3.175 4.30256 3 4.80768 3H12.1153V4.49997H4.80768C4.73074 4.49997 4.66022 4.53202 4.59612 4.59613C4.53201 4.66024 4.49995 4.73077 4.49995 4.8077V19.1923C4.49995 19.2693 4.53201 19.3398 4.59612 19.4039C4.66022 19.468 4.73074 19.5 4.80768 19.5H12.1153V21H4.80768ZM16.7308 16.5192L15.6924 15.4346L18.127 13H9.7116V11.5H18.127L15.6924 9.06542L16.7308 7.98085L21 12.25L16.7308 16.5192Z" fill="white"/>
</svg>
