<svg width="20" height="20" viewBox="0 0 20 20" fill="none" xmlns="http://www.w3.org/2000/svg">
<path d="M17 12.075V15.8333C17 16.1444 16.8833 16.4167 16.65 16.65C16.4167 16.8833 16.1444 17 15.8333 17H4.16667C3.85556 17 3.58333 16.8833 3.35 16.65C3.11667 16.4167 3 16.1444 3 15.8333V4.16667C3 3.85556 3.11667 3.58333 3.35 3.35C3.58333 3.11667 3.85556 3 4.16667 3H7.925V4.16667H4.16667V15.8333H15.8333V12.075H17ZM8.09444 12.7417L7.27778 11.9056L15.0167 4.16667H10.7583V3H17V9.24167H15.8333V5.00278L8.09444 12.7417Z" fill="#86EAE0"/>
</svg>
