<svg width="24" height="24" viewBox="0 0 24 24" fill="none" xmlns="http://www.w3.org/2000/svg">
<path d="M12 20.9179C10.3362 20.9179 8.82633 20.5061 7.47044 19.6824C6.11455 18.8587 5.05102 17.7549 4.27984 16.3711V18.9161H3V14.2233H7.69279V15.5031H5.26923C5.88619 16.7458 6.79796 17.7457 8.00452 18.5027C9.2111 19.2596 10.5429 19.6381 12 19.6381C13.0447 19.6381 14.0245 19.4451 14.9396 19.0589C15.8546 18.6728 16.6556 18.1458 17.3426 17.478C18.0295 16.8101 18.5811 16.0214 18.9974 15.1119C19.4136 14.2023 19.6381 13.2225 19.6709 12.1723H20.9508C20.9234 13.3843 20.6699 14.5209 20.1902 15.582C19.7106 16.643 19.0674 17.5701 18.2606 18.3632C17.4539 19.1562 16.5131 19.7803 15.4384 20.2354C14.3636 20.6904 13.2175 20.918 12 20.918V20.9179ZM11.3962 17.7676V16.6912C10.7716 16.5457 10.2522 16.2864 9.83821 15.9134C9.42417 15.5404 9.10666 15.0372 8.8857 14.4038L9.96535 13.9641C10.1688 14.5198 10.4601 14.9421 10.8391 15.2308C11.2181 15.5196 11.6478 15.664 12.128 15.664C12.6137 15.664 13.0496 15.5429 13.4357 15.3006C13.8219 15.0583 14.015 14.6697 14.015 14.1347C14.015 13.6895 13.849 13.3348 13.517 13.0706C13.185 12.8065 12.5656 12.5081 11.6587 12.1756C10.7814 11.8605 10.1486 11.5077 9.76027 11.1172C9.37193 10.7267 9.17776 10.2109 9.17776 9.56991C9.17776 9.01969 9.37631 8.51595 9.77339 8.0587C10.1705 7.60145 10.7256 7.30993 11.4388 7.18413V6.15041H12.6038V7.18413C13.0829 7.22133 13.524 7.40155 13.9271 7.72479C14.3302 8.04804 14.6209 8.43664 14.7993 8.89061L13.7459 9.31392C13.5993 8.9978 13.3898 8.73499 13.1174 8.52551C12.845 8.31602 12.4868 8.21128 12.0427 8.21128C11.5121 8.21128 11.0962 8.33708 10.7948 8.58869C10.4934 8.84028 10.3427 9.16736 10.3427 9.56991C10.3427 9.97247 10.4899 10.2859 10.7841 10.5101C11.0784 10.7344 11.674 10.9996 12.571 11.3059C13.5949 11.6757 14.283 12.0903 14.6352 12.5497C14.9874 13.0091 15.1635 13.5375 15.1635 14.1347C15.1635 14.5417 15.0883 14.8988 14.9379 15.2062C14.7875 15.5136 14.5909 15.772 14.348 15.9815C14.1052 16.191 13.8287 16.3564 13.5186 16.4779C13.2085 16.5993 12.8893 16.6846 12.5612 16.7338V17.7676H11.3962ZM3.04923 11.7457C3.08753 10.5063 3.34924 9.35469 3.83438 8.29087C4.31952 7.22706 4.96819 6.30136 5.7804 5.51377C6.59263 4.72617 7.53201 4.11031 8.59854 3.66619C9.66509 3.22206 10.7989 3 12 3C13.6474 3 15.1573 3.41322 16.5296 4.23967C17.9019 5.06612 18.9654 6.17944 19.7202 7.57965V5.00187H21V9.69464H16.3072V8.41482H18.7308C18.1302 7.19401 17.2253 6.19964 16.016 5.43173C14.8067 4.6638 13.468 4.27984 12 4.27984C10.9772 4.27984 10.0097 4.47017 9.09735 4.85084C8.18505 5.23152 7.38268 5.75303 6.69023 6.41539C5.9978 7.07774 5.43937 7.8637 5.01494 8.77327C4.59051 9.68285 4.36189 10.6736 4.32907 11.7457H3.04923Z" fill="white"/>
</svg>
