<svg width="16" height="16" viewBox="0 0 16 16" fill="none" xmlns="http://www.w3.org/2000/svg">
<g id="tabler-icon-gas-station">
<path id="Vector" d="M13.3333 6.00008V10.6667C13.3333 10.932 13.228 11.1863 13.0404 11.3739C12.8529 11.5614 12.5986 11.6667 12.3333 11.6667C12.0681 11.6667 11.8138 11.5614 11.6262 11.3739C11.4387 11.1863 11.3333 10.932 11.3333 10.6667V8.66675C11.3333 8.31313 11.1929 7.97399 10.9428 7.72394C10.6928 7.47389 10.3536 7.33341 10 7.33341H2.66667M13.3333 6.00008L11.3333 4.00008M13.3333 6.00008H12.6667C12.4899 6.00008 12.3203 5.92984 12.1953 5.80482C12.0702 5.67979 12 5.51023 12 5.33341V4.66675M2.66667 13.3334V4.00008C2.66667 3.64646 2.80714 3.30732 3.05719 3.05727C3.30724 2.80722 3.64638 2.66675 4 2.66675H8C8.35362 2.66675 8.69276 2.80722 8.94281 3.05727C9.19286 3.30732 9.33333 3.64646 9.33333 4.00008V13.3334M2 13.3334H10" stroke="white" stroke-linecap="round" stroke-linejoin="round"/>
</g>
</svg>
