<svg width="24" height="24" viewBox="0 0 24 24" fill="none" xmlns="http://www.w3.org/2000/svg">
<g id="icon/24/telegram">
<rect id="Rectangle 61" width="24" height="24" rx="4" fill="#305C85" fill-opacity="0.3"/>
<path id="Vector" d="M4.22469 11.5918C5.75586 10.7788 7.47339 10.0918 9.0693 9.40469C11.8254 8.28494 14.5815 7.17617 17.3813 6.15106C17.9282 5.9719 18.9011 5.80203 19 6.58375C18.9458 7.68238 18.7375 8.78101 18.5844 9.86865C18.2125 12.2772 17.7751 14.6756 17.3481 17.0731C17.2055 17.876 16.1669 18.2884 15.5002 17.7703C13.9034 16.7351 12.3066 15.6998 10.7317 14.6435C10.2181 14.1364 10.6985 13.4079 11.1587 13.0479C12.4711 11.8014 13.8597 10.734 15.1073 9.42413C15.4468 8.64241 14.4511 9.29737 14.123 9.49765C12.3294 10.6918 10.5795 11.9594 8.67645 13.0158C7.714 13.533 6.57656 13.0893 5.61411 12.8045C4.74966 12.4665 3.48098 12.1183 4.22469 11.5901V11.5918Z" fill="#A2D5DF"/>
</g>
</svg>
