<svg width="24" height="24" viewBox="0 0 24 24" fill="none" xmlns="http://www.w3.org/2000/svg">
<g id="icon/24/twitter">
<path id="Vector" d="M20 0H4C1.79086 0 0 1.79086 0 4V20C0 22.2091 1.79086 24 4 24H20C22.2091 24 24 22.2091 24 20V4C24 1.79086 22.2091 0 20 0Z" fill="#305C85" fill-opacity="0.3"/>
<path id="Vector_2" d="M9.39776 18C14.6807 18 17.5714 13.3819 17.5714 9.38386C17.5714 9.25394 17.5714 9.12402 17.5658 8.99409C18.126 8.5689 18.6134 8.0315 19 7.42323C18.4846 7.66535 17.93 7.8248 17.3473 7.90157C17.9412 7.52953 18.395 6.93307 18.6134 6.22441C18.0588 6.57283 17.4426 6.82087 16.7871 6.95669C16.2605 6.36614 15.5154 6 14.6919 6C13.1064 6 11.8179 7.35827 11.8179 9.02953C11.8179 9.26575 11.8459 9.49606 11.8908 9.72047C9.5042 9.59646 7.38655 8.38583 5.96919 6.55512C5.72269 7.00394 5.58263 7.52362 5.58263 8.07874C5.58263 9.12992 6.09244 10.0571 6.85994 10.6004C6.38936 10.5827 5.94678 10.4468 5.56022 10.2224C5.56022 10.2343 5.56022 10.2461 5.56022 10.2638C5.56022 11.7283 6.55182 12.9567 7.86275 13.2343C7.62185 13.3051 7.36975 13.3406 7.10644 13.3406C6.92157 13.3406 6.7423 13.3228 6.56863 13.2874C6.93277 14.4921 7.9972 15.3661 9.2521 15.3898C8.26611 16.2047 7.02801 16.689 5.68347 16.689C5.45378 16.689 5.22409 16.6772 5 16.6476C6.26611 17.498 7.77871 18 9.39776 18Z" fill="#A2D5DF"/>
</g>
</svg>
