<svg width="24" height="24" viewBox="0 0 24 24" fill="none" xmlns="http://www.w3.org/2000/svg">
<path d="M21 1H3C1.89543 1 1 1.89543 1 3V21C1 22.1046 1.89543 23 3 23H21C22.1046 23 23 22.1046 23 21V3C23 1.89543 22.1046 1 21 1Z" fill="black"/>
<path d="M13.8744 9.932H10.3192C10.1696 9.932 10.0464 10.0552 10.0464 10.2048V13.76C10.0464 13.9096 10.1696 14.0328 10.3192 14.0328H13.8744C14.024 14.0328 14.1472 13.9096 14.1472 13.76V10.2048C14.1472 10.0552 14.024 9.932 13.8744 9.932Z" fill="white"/>
<path d="M9.76483 5.8312H6.20963C6.06003 5.8312 5.93683 5.9544 5.93683 6.104V9.6592C5.93683 9.8088 6.06003 9.932 6.20963 9.932H9.76483C9.91443 9.932 10.0376 9.8088 10.0376 9.6592V6.104C10.0376 5.9544 9.91443 5.8312 9.76483 5.8312Z" fill="white"/>
<path d="M17.984 5.8312H14.4288C14.2792 5.8312 14.156 5.9544 14.156 6.104V9.6592C14.156 9.8088 14.2792 9.932 14.4288 9.932H17.984C18.1336 9.932 18.2568 9.8088 18.2568 9.6592V6.104C18.2568 5.9544 18.1336 5.8312 17.984 5.8312Z" fill="white"/>
<path d="M9.76483 14.0416H6.20963C6.06003 14.0416 5.93683 14.1648 5.93683 14.3144V17.8696C5.93683 18.0192 6.06003 18.1424 6.20963 18.1424H9.76483C9.91443 18.1424 10.0376 18.0192 10.0376 17.8696V14.3144C10.0376 14.1648 9.91443 14.0416 9.76483 14.0416Z" fill="white"/>
<path d="M17.984 14.0416H14.4288C14.2792 14.0416 14.156 14.1648 14.156 14.3144V17.8696C14.156 18.0192 14.2792 18.1424 14.4288 18.1424H17.984C18.1336 18.1424 18.2568 18.0192 18.2568 17.8696V14.3144C18.2568 14.1648 18.1336 14.0416 17.984 14.0416Z" fill="white"/>
</svg>
